<svg xmlns="http://www.w3.org/2000/svg" fill-rule="evenodd" stroke-linejoin="round" stroke-miterlimit="2" clip-rule="evenodd" viewBox="0 0 32 32" id="olympics-schedule">
  <rect width="32" height="32" fill="none"></rect>
  <path fill="#e7e7e7" d="M29.5,12.5c0,-0.276 -0.224,-0.5 -0.5,-0.5l-26,-0c-0.276,-0 -0.5,0.224 -0.5,0.5l-0,14c0,1.381 1.119,2.5 2.5,2.5c4.843,0 17.157,0 22,0c1.381,-0 2.5,-1.119 2.5,-2.5c0,-4.292 0,-14 0,-14Z"></path>
  <path fill="#d8d8d8" d="M6,12l-3,-0c-0.276,-0 -0.5,0.224 -0.5,0.5l-0,14c0,1.381 1.119,2.5 2.5,2.5c4.843,0 17.157,0 22,0c0,0 -19,0 -19,0c-1.381,-0 -2.5,-1.119 -2.5,-2.5l-0,-14c0,-0.276 0.224,-0.5 0.5,-0.5Z"></path>
  <path fill="#5d9cec" d="M29.5,8.5c-0,-1.381 -1.119,-2.5 -2.5,-2.5c-4.843,0 -17.157,0 -22,0c-1.381,0 -2.5,1.119 -2.5,2.5l-0,4c0,0.276 0.224,0.5 0.5,0.5l26,0c0.276,0 0.5,-0.224 0.5,-0.5l-0,-4Z"></path>
  <path fill="#4a89dc" d="M27,6c-4.843,0 -17.157,0 -22,0c-1.381,0 -2.5,1.119 -2.5,2.5l-0,4c0,0.276 0.224,0.5 0.5,0.5l3,0c-0.276,-0 -0.5,-0.224 -0.5,-0.5l0,-4c0,-1.381 1.119,-2.5 2.5,-2.5l19,-0Z"></path>
  <path fill="#747474" d="M7.5 5l0 3c0 .276.224.5.5.5.276 0 .5-.224.5-.5l0-3c0-.276-.224-.5-.5-.5-.276 0-.5.224-.5.5zM15.5 5l0 3c0 .276.224.5.5.5.276 0 .5-.224.5-.5l0-3c0-.276-.224-.5-.5-.5-.276 0-.5.224-.5.5zM23.5 5l0 3c0 .276.224.5.5.5.276 0 .5-.224.5-.5l0-3c0-.276-.224-.5-.5-.5-.276 0-.5.224-.5.5z"></path>
  <path fill="#5d9cec" d="M10.115,15.577c-1.719,-0 -3.115,1.396 -3.115,3.115c0,1.72 1.396,3.116 3.115,3.116c1.72,-0 3.116,-1.396 3.116,-3.116c-0,-1.719 -1.396,-3.115 -3.116,-3.115Zm0,1c1.168,-0 2.116,0.948 2.116,2.115c-0,1.168 -0.948,2.116 -2.116,2.116c-1.167,-0 -2.115,-0.948 -2.115,-2.116c0,-1.167 0.948,-2.115 2.115,-2.115Z"></path>
  <path fill="#f6bb42" d="M13.058,18.192c-1.72,0 -3.116,1.396 -3.116,3.116c0,1.719 1.396,3.115 3.116,3.115c1.719,0 3.115,-1.396 3.115,-3.115c0,-1.72 -1.396,-3.116 -3.115,-3.116Zm-0,1c1.167,0 2.115,0.948 2.115,2.116c0,1.167 -0.948,2.115 -2.115,2.115c-1.168,0 -2.116,-0.948 -2.116,-2.115c0,-1.168 0.948,-2.116 2.116,-2.116Z"></path>
  <path d="M16,15.577c-1.719,-0 -3.115,1.396 -3.115,3.115c-0,1.72 1.396,3.116 3.115,3.116c1.719,-0 3.115,-1.396 3.115,-3.116c0,-1.719 -1.396,-3.115 -3.115,-3.115Zm-0,1c1.168,-0 2.115,0.948 2.115,2.115c0,1.168 -0.947,2.116 -2.115,2.116c-1.168,-0 -2.115,-0.948 -2.115,-2.116c-0,-1.167 0.947,-2.115 2.115,-2.115Z"></path>
  <path fill="#ed5565" d="M21.885,15.577c-1.72,-0 -3.116,1.396 -3.116,3.115c0,1.72 1.396,3.116 3.116,3.116c1.719,-0 3.115,-1.396 3.115,-3.116c0,-1.719 -1.396,-3.115 -3.115,-3.115Zm-0,1c1.167,-0 2.115,0.948 2.115,2.115c0,1.168 -0.948,2.116 -2.115,2.116c-1.168,-0 -2.116,-0.948 -2.116,-2.116c0,-1.167 0.948,-2.115 2.116,-2.115Z"></path>
  <path fill="#a0d468" d="M18.942,18.192c-1.719,0 -3.115,1.396 -3.115,3.116c-0,1.719 1.396,3.115 3.115,3.115c1.72,0 3.116,-1.396 3.116,-3.115c-0,-1.72 -1.396,-3.116 -3.116,-3.116Zm0,1c1.168,0 2.116,0.948 2.116,2.116c-0,1.167 -0.948,2.115 -2.116,2.115c-1.167,0 -2.115,-0.948 -2.115,-2.115c-0,-1.168 0.948,-2.116 2.115,-2.116Z"></path>
  <g>
    <path d="M29.5,12.5c0,-0.276 -0.224,-0.5 -0.5,-0.5l-26,-0c-0.276,-0 -0.5,0.224 -0.5,0.5l-0,14c0,1.381 1.119,2.5 2.5,2.5c4.843,0 17.157,0 22,0c1.381,-0 2.5,-1.119 2.5,-2.5c0,-4.292 0,-14 0,-14Zm-1,0.5l0,13.5c-0,0.828 -0.672,1.5 -1.5,1.5c-0,0 -22,0 -22,0c-0.828,-0 -1.5,-0.672 -1.5,-1.5c-0,-0 -0,-13.5 -0,-13.5l25,0Z"></path>
    <path d="M29 23l-5 0c-.276 0-.5.224-.5.5l0 5c0 .276.224.5.5.5.276 0 .5-.224.5-.5l0-4.5c0 0 4.5 0 4.5 0 .276 0 .5-.224.5-.5 0-.276-.224-.5-.5-.5zM29.5 8.5c0-1.381-1.119-2.5-2.5-2.5-4.843 0-17.157 0-22 0-1.381 0-2.5 1.119-2.5 2.5l0 4c0 .276.224.5.5.5l26 0c.276 0 .5-.224.5-.5l0-4zm-1 0l0 3.5c0 0-25 0-25 0 0 0 0-3.5 0-3.5 0-.828.672-1.5 1.5-1.5 0 0 22 0 22 0 .828 0 1.5.672 1.5 1.5z"></path>
    <path d="M7.5 5l0 3c0 .276.224.5.5.5.276 0 .5-.224.5-.5l0-3c0-.276-.224-.5-.5-.5-.276 0-.5.224-.5.5zM15.5 5l0 3c0 .276.224.5.5.5.276 0 .5-.224.5-.5l0-3c0-.276-.224-.5-.5-.5-.276 0-.5.224-.5.5zM23.5 5l0 3c0 .276.224.5.5.5.276 0 .5-.224.5-.5l0-3c0-.276-.224-.5-.5-.5-.276 0-.5.224-.5.5zM10.115 15.577c-1.719 0-3.115 1.396-3.115 3.115 0 1.72 1.396 3.116 3.115 3.116 1.72 0 3.116-1.396 3.116-3.116 0-1.719-1.396-3.115-3.116-3.115zm0 1c1.168 0 2.116.948 2.116 2.115 0 1.168-.948 2.116-2.116 2.116-1.167 0-2.115-.948-2.115-2.116 0-1.167.948-2.115 2.115-2.115z"></path>
    <path d="M13.058,18.192c-1.72,0 -3.116,1.396 -3.116,3.116c0,1.719 1.396,3.115 3.116,3.115c1.719,0 3.115,-1.396 3.115,-3.115c0,-1.72 -1.396,-3.116 -3.115,-3.116Zm-0,1c1.167,0 2.115,0.948 2.115,2.116c0,1.167 -0.948,2.115 -2.115,2.115c-1.168,0 -2.116,-0.948 -2.116,-2.115c0,-1.168 0.948,-2.116 2.116,-2.116Z"></path>
    <path d="M16,15.577c-1.719,-0 -3.115,1.396 -3.115,3.115c-0,1.72 1.396,3.116 3.115,3.116c1.719,-0 3.115,-1.396 3.115,-3.116c0,-1.719 -1.396,-3.115 -3.115,-3.115Zm-0,1c1.168,-0 2.115,0.948 2.115,2.115c0,1.168 -0.947,2.116 -2.115,2.116c-1.168,-0 -2.115,-0.948 -2.115,-2.116c-0,-1.167 0.947,-2.115 2.115,-2.115Z"></path>
    <path d="M21.885,15.577c-1.72,-0 -3.116,1.396 -3.116,3.115c0,1.72 1.396,3.116 3.116,3.116c1.719,-0 3.115,-1.396 3.115,-3.116c0,-1.719 -1.396,-3.115 -3.115,-3.115Zm-0,1c1.167,-0 2.115,0.948 2.115,2.115c0,1.168 -0.948,2.116 -2.115,2.116c-1.168,-0 -2.116,-0.948 -2.116,-2.116c0,-1.167 0.948,-2.115 2.116,-2.115Z"></path>
    <path d="M18.942,18.192c-1.719,0 -3.115,1.396 -3.115,3.116c-0,1.719 1.396,3.115 3.115,3.115c1.72,0 3.116,-1.396 3.116,-3.115c-0,-1.72 -1.396,-3.116 -3.116,-3.116Zm0,1c1.168,0 2.116,0.948 2.116,2.116c-0,1.167 -0.948,2.115 -2.116,2.115c-1.167,0 -2.115,-0.948 -2.115,-2.115c-0,-1.168 0.948,-2.116 2.115,-2.116Z"></path>
  </g>
</svg>
