<svg xmlns="http://www.w3.org/2000/svg" xml:space="preserve" viewBox="0 0 300 300"><path d="M243.94 55.349c-1.968.126-3.489-1.237-4.977-2.298a981 981 0 0 0-13.329-10.099c1.985-4.538 3.771-10.107 1.134-14.75-3.514-7.354-11.415-11.041-18.771-13.437-5.885-1.373-12.672-2.141-18.071 1.151-3.729 2.338-4.513 7.074-4.579 11.125.057 7.678 4.238 14.715 9.759 19.8 3.908 3.288 8.573 6.46 13.944 6 4.81.212 9.109-2.161 12.91-4.84 3.311 2.472 6.597 4.977 9.941 7.407-77.299-.067-154.6-.009-231.901-.028v6c77.998-.016 155.996.034 233.996-.025 2.441.134 5.273-.517 7.292 1.261 4.926 3.644 9.793 7.372 14.649 11.109-1.975 2.425-4.024 4.798-6.354 6.89-7.954 7.459-15.433 15.908-25.521 20.536-14.272 7.262-31.185 6.216-45.473 13.387-3.165 1.475-4.862 4.586-4.417 8.047 5.819 6.675 15.58 4.899 23.443 5.03 17.173-2.089 33.101-11.78 43.703-25.35 6.581-8.243 13.021-16.844 16.983-26.7 1.833 1.071 3.554 3.059 5.885 2.617 1.648-.252 1.83-2.116 2.537-3.288-4.832-5.431-11.228-9.183-16.981-13.55 16.752.086 33.505.012 50.258.037v-6c-18.687-.028-37.375.052-56.06-.032m-33.05-8.841c-5.238 1.106-10.063-2.324-13.371-6.032-3.313-4.02-6.621-8.931-5.919-14.401.238-2.058.293-4.947 2.838-5.486 6.369-2.222 13.297.106 19.021 3.077 3.757 2.279 8.547 5.237 8.357 10.256-.192 6.009-4.868 11.74-10.926 12.586"/><path d="M155.604 63.919c7.322-.864 15.021 1.995 19.945 7.495 3.173 3.835 5.218 8.599 5.603 13.581-.252 8.857-6.031 17.5-14.533 20.405-10.038 4.011-22.896-.145-27.999-9.846-3.705-6.051-3.804-14.06-.121-20.148 3.265-6.461 10.091-10.453 17.105-11.487M55.353 110.285c14.666-9.292 32.164-15.968 49.77-13.424 7.073.635 13.714 3.601 19.538 7.549 3.272 2.874 4.061 8.76.621 11.811-1.844 2.128-4.879 1.437-7.344 1.403-11.832-1.902-23.955-3.611-35.901-1.667-6.068.67-11.956 2.351-17.753 4.204-10.955 3.875-20.754 10.239-31.045 15.516-.161-1.771 1.117-3.146 1.937-4.572 5.226-8.189 11.817-15.726 20.177-20.82M0 160.381h300v6H0zm107.607 16.385c2.205-5.334 8.722-6.051 13.572-4.277 1.385 1.732 2.789 3.464 3.921 5.382 1.141 2.148 3.633 3.364 4.085 5.908 4.498 14.796 10.05 29.676 10.252 45.321-.025 6.278-1.57 13.509-7.073 17.289-6.625 5.144-13.401 10.191-20.82 14.142-17.865 8.445-35.068 18.397-53.586 25.385.878-3.147 4.307-4.459 6.472-6.615 12.508-9.651 23.222-21.305 34.658-32.145 6.048-6.229 13.686-10.517 20.753-15.441-3.945-9.858-8.01-19.695-11.256-29.811-1.921-8.117-4.111-17.058-.978-25.138m32.032-2.089c3.769-2.801 8.995-2.263 13.125-.58 12.291 4.173 21.117 14.4 28.918 24.28 17.582 23.43 35.015 46.971 52.55 70.436 4.565 6.023 10.396 10.974 15.008 16.937-4.491.547-7.906-3.262-11.461-5.418-13.222-9.422-26.661-18.619-38.855-29.371-14.768-12.441-28.522-26.02-42.115-39.717-7.725-7.783-15.2-16.421-18.397-27.133-.756-3.08-1.191-6.975 1.227-9.434"/></svg>