<svg xmlns="http://www.w3.org/2000/svg" viewBox="0 0 300 300"><path d="M246.531 8.469c-11.841 0-21.469 9.596-21.469 21.437s9.628 21.469 21.47 21.469c11.84 0 21.437-9.627 21.437-21.469 0-11.841-9.596-21.437-21.438-21.437m.156 5.625c8.64 0 15.657 7.017 15.657 15.656s-7.018 15.625-15.656 15.625c-8.64 0-15.625-6.986-15.625-15.625s6.986-15.656 15.625-15.656" style="fill:#000;fill-opacity:1;stroke:none;stroke-width:1.20000005;stroke-linejoin:round;stroke-miterlimit:4;stroke-dasharray:none;stroke-opacity:1"/><path d="M83.554 60.08a17.109 17.109 0 1 1-34.217 0 17.109 17.109 0 1 1 34.217 0" style="fill:#000;fill-opacity:1;stroke:none;stroke-width:1.20000005;stroke-linejoin:round;stroke-miterlimit:4;stroke-dasharray:none;stroke-opacity:1" transform="translate(34.197 -27.464)scale(1.2927)"/><path d="M165.268 54.308c24.356-13.46 44.583-32.778 64.925-51.456-5.427 12.07-11.577 23.988-20.177 34.144-13.31 16.174-27.263 32.946-46.076 42.879-6.02 3.773-15.621-1.371-14.003-8.928.621-8.366 9.16-12.577 15.33-16.639M116.41 162.499c7.037-2.082 12.756 6.1 11.502 12.524-.278 19.372-10.91 36.581-19.746 53.174-13.504 21.313-25.218 43.834-40.404 64.035 4.48-17.344 10.424-34.28 14.727-51.673 5.837-22.552 10.918-45.658 21.483-66.594 2.57-5.006 6.246-10.911 12.437-11.466m47.259-37.875c4.421-1.77 9.96-1.32 12.964 2.71 4.45 5.965 5.059 13.932 4.908 21.115-3.986 31.868-24.324 58.228-44.61 81.824 5.138-15.291 13.709-29.357 17.034-45.266 1.503-6.264 2.195-12.674 3.135-19.034-2.757 2.644-5.151 5.816-8.505 7.728-4.79 1.862-9.916-1.158-11.496-5.718-3.148-6.3-1.554-13.672 1.057-19.864 5.234-10.507 14.01-20.037 25.513-23.495m-95.313-24.252c7.655-6.523 15.9-14.562 26.703-14.344 5.555-.394 10.218 5.929 8.245 11.13-1.204 4.692-5.997 6.882-9.445 9.721-16.222 10.872-33.071 21.137-47.095 34.883-9.297 8.942-16.651 19.891-27.268 27.434 10.232-26.501 28.094-49.654 48.86-68.824m152.932-45.509c20.326-1.387 40.752-1.31 61.09-.136-1.447 7.138-3.81 14.044-5.378 21.15-1.445 7.7-1.995 15.537-3.48 23.229l-5.036-.134c-.609-13.237 2.139-26.268 5.861-38.888-15.045-.127-30.088-.098-45.13-.117 3.366 11.717 6.016 23.765 5.754 36.03.222 2.593-3.17 2.743-4.79 3.92-1.355-9.277-1.806-18.731-4.33-27.8-1.517-5.747-3.81-11.323-4.561-17.254" style="fill:#050505;fill-rule:nonzero;stroke:none"/></svg>