<svg xmlns="http://www.w3.org/2000/svg" xml:space="preserve" viewBox="0 0 331.99 331.99"><path fill-rule="evenodd" d="M208.93 145.1 177.83 0l51.987 139.56c2.083 5.592-1.903 11.685-7.671 13.216s-12.255-1.782-13.216-7.671zm18.41-118.46s-12.559 5.133-27.074 13.623l1.602 4.3C214.62 33.876 227.34 26.64 227.34 26.64m-45.398 25.811c-12.576 9.64-23.273 21.298-24.893 33.785-2.176 16.779 29.639 51.895 29.639 51.895 3.88 4.534 11.144 3.996 15.277-.309s3.43-10.628-.31-15.277c0 0-25.766-26.828-25.466-39.619.159-6.754 3.323-13.575 7.993-20.029zm-23.997 130.53-56.34-95.242 73.776 82.476c3.979 4.448 2.48 11.576-2.335 15.101s-12.063 2.801-15.101-2.335m-4.43 35.668a23.517 23.517 0 0 1-23.518 23.517 23.517 23.517 0 0 1-23.517-23.517 23.517 23.517 0 0 1 23.517-23.517 23.517 23.517 0 0 1 23.517 23.517m44.808 3.205-10.805 110.13-10.805-110.13c-.582-5.939 4.838-10.805 10.805-10.805 5.968 0 11.388 4.866 10.805 10.805"/></svg>