<svg xmlns="http://www.w3.org/2000/svg" viewBox="0 0 240 240"><path d="M102 59.9v17l3 .3 3 .3-3.9 4.2-4 4.2-5.6-3.3c-13.3-8.1-32.4-6.9-42.3 2.7-5.7 5.4-7.6 10.1-7.6 19.2 0 13 5.8 23.1 18.3 32l7 5L70 159c0 11.9.4 18.3 1.3 20 1.7 3.3 9.3 7.4 19.2 10.2 7.2 2.1 10.1 2.3 29 2.3s21.8-.2 28.8-2.3c8.8-2.5 15.1-5.4 18.5-8.5 2.1-2 2.2-2.6 2.2-20.6v-18.6l4.5-2.8c2.4-1.6 7.4-6 11-9.9 9.5-10.3 12.5-20.8 9-32.5-2-6.7-8-13.4-14.7-16.4-10-4.5-26.7-2.8-36.2 3.6l-3.4 2.3-4.3-4.4-4.3-4.4h6.4V43h-35zm12.5-6.9c3.9 4.3 5 4.3 10.1-.1 6.2-5.3 7.2-3.3 1.3 2.7l-4.3 4.4 4.3 4.4c5.9 6 4.9 8-1.3 2.7-2.6-2.2-4.9-4.1-5.1-4.1s-2.5 1.9-5.1 4.1c-6.2 5.3-7.2 3.3-1.3-2.7l4.3-4.4-4.2-4.3c-4.4-4.5-5.7-7.6-2.4-5.8.9.5 2.6 1.9 3.7 3.1M126 83.2c1.8 1.3 4.2 3.5 5.3 4.9l1.9 2.6-2.8 4.4c-1.5 2.4-4.6 8.4-6.9 13.2l-4.2 8.8-2.3-5.5c-1.2-3-4.2-8.7-6.6-12.6-2.4-4-4.4-7.7-4.4-8.4 0-1.4 5.4-6.7 8.5-8.4 3.2-1.8 8-1.4 11.5 1m-37.7 4.3c6.8 3.4 14.6 11.3 18.4 18.9 2.2 4.3 7.3 16.9 7.3 18 0 .2-2.6.7-5.7 1.1-9.9 1.1-18 3.3-26.3 7.1l-8 3.7-4-2.8c-5.4-3.8-14.2-13.4-16.3-17.8-5.8-12.2-1-25.8 10.7-30.1 6.4-2.4 16.8-1.6 23.9 1.9m86-1.9c6.5 2.2 12.3 8.7 13.2 14.8 1.7 10.8-3.4 21.2-14.5 29.8-7.9 6.2-8.2 6.2-15.1 2.8-6.8-3.5-17.3-6.4-26.6-7.5-6.2-.7-6.3-.7-5.7-3.3.3-1.5 2.6-7 5.1-12.2 10-20.8 26.7-30.2 43.6-24.4m-38.5 71.9c15 2.4 26.2 6.7 26.2 10 0 1.4-.3 1.4-2.7.1-1.6-.7-6.6-2.6-11.3-4.2-8.2-2.7-9.3-2.8-28-2.8-20.9 0-26.8.9-37.7 5.9-4.1 1.9-5.3 2.1-5.3 1 0-4.7 23.4-11.2 40.5-11.4 5-.1 13.2.6 18.3 1.4"/><path d="M115.3 85c-1.2.5-2.9 2-3.8 3.4-1.6 2.4-1.5 2.8 2.7 10.2 2.4 4.2 4.7 7.7 5.3 7.7.9 0 2.3-2.1 7.1-11.2 2.7-5 2.1-7.2-2.6-9.6-3.2-1.7-5.4-1.8-8.7-.5m-52.8 4.9c-6.2 3.8-7 5.5-7 15 0 6.5.5 9.5 1.9 12.1 2.4 4.4 12.4 14.5 15.2 15.2 1.2.3 5.9-1.1 11.5-3.5 6-2.6 12.2-4.4 17.2-5.1 9.4-1.3 9.5-1.7 3.7-13.4-4.7-9.4-14.5-19.4-20.7-21.1-6.4-1.8-18.4-1.4-21.8.8m98.5-2.2c-8.7.9-17.1 6.7-23.4 16.1-4.5 6.8-8.4 16.7-7.1 18 .3.4 3.9 1.2 8 1.8 4 .7 11 2.8 15.7 4.8 4.6 2 9.2 3.6 10.1 3.6 4.8 0 13.6-8.1 17.3-15.8 5.6-11.7 2.3-24.3-7-27.1-4.3-1.3-9.5-1.8-13.6-1.4"/></svg>