<svg xmlns="http://www.w3.org/2000/svg" viewBox="0 0 300 300"><path d="M113.421 47.962c7.236-.683 14.89 2.284 19.428 8.043 3.208 3.591 4.593 8.392 5.133 13.082-.233 7.19-3.874 14.215-9.905 18.224-5.977 3.82-13.773 4.863-20.395 2.125-11.093-3.828-17.619-18.02-12.053-28.667 3.072-7.13 10.182-11.883 17.792-12.807m98.773 29.754-.766-1.578c-3.198 4.905-5.72 10.177-8.94 15.065-8.776 9.707-20.284 18.452-34.072 20.244-11.65.744-21.828-5.587-32.192-9.584-5.555-1.975-12.18-4.104-17.767-1.051-2.855 2.218-4.875 5.92-3.916 9.463 1.114 7.901 9.509 12.132 16.72 14.525 9.133 2.651 18.694 4.827 28.32 4.008 18.022-2.091 33.608-13.278 43.523-27.231 4.678-7.249 8.694-15.247 9.09-23.861M81.506 205.212c-2.427-3.743-1.542-8.695-.104-12.891 4.888-4.615 11.92-5.05 17.77-3.414 11.283 2.994 21.736 8.076 32.12 13.061 10.486 5.077 19.976 12.003 27.768 20.538 14.449 16.822 24.048 38.733 23.295 61.922l-.956 2.159c-3.565-10.048-7.13-20.33-13.43-28.929-6.085-8.713-13.047-16.857-21.2-23.696-4.512-3.882-9.407-7.547-15.193-9.469-11.877-3.63-24.312-5.608-36.08-9.548-5.44-1.92-11.044-4.611-13.99-9.733m43.391-14.507c-2.426-5.075-.198-10.332 2.075-14.738 2.608-5.066 7.198-8.699 11.896-11.851 9.479-6.364 20.832-10.456 32.736-10.678 5.33-.156 10.816 1.487 15.22 4.723 3.942 3.44 6.495 8.026 8.884 12.506 3.907 7.42 6.51 15.323 9.029 23.194 3.655 10.425 4.997 21.297 6.64 32.02-.21.323-.633.968-.845 1.29-8.706-14.867-15.906-30.544-26.03-44.661-2.527-3.36-4.993-6.981-8.711-9.222-6.945-.41-11.454 5.005-16.424 8.523-7.135 5.808-14.25 12.773-24.043 14.162-3.845-.064-8.325-1.801-10.427-5.268"/><path d="m134.791 15.102 1.154 1.296c-5.703.787-11.486.841-17.183 1.654-12.216 3.67-24.587 10.084-31.458 21.264-5.1 9.756-3.166 21.089-3.439 31.642-.3 5.59-.864 12.165-5.778 15.758-3.114 1.573-7.27 1.827-10.149-.427-6.81-4.14-7.499-13.089-6.954-20.277 1.037-8.949 2.672-18.076 7.074-26.056 8.752-14.714 24.905-23.666 41.44-26.61 8.411-1.12 17.257-1.369 25.293 1.756"/><path d="m161.156 6.188-44.844 24.5-3.343 1.812L116 34.813c27.192 20.626 42.335 45.08 52.375 71.343a64 64 0 0 0 5.219-.062c-9.949-26.564-24.946-51.66-51.656-72.875L163.5 10.53zM180.5 127.28a62 62 0 0 1-4.687 1.531c1.756 6.187 3.363 12.425 4.875 18.72l.25.968.843.531c24.772 15.41 37.507 36.674 46.594 47.813l-39.937 92.031h-1.25v3.313l4.718 1 41.531-95.72.625-1.405-1-1.188c-8.307-9.818-21.72-32.874-47.812-49.437-1.468-6.075-3.03-12.136-4.75-18.157" style="fill:#000;fill-opacity:1;fill-rule:evenodd;stroke:none;stroke-width:4.92719841;stroke-linecap:butt;stroke-linejoin:miter;stroke-miterlimit:4;stroke-dasharray:none;stroke-opacity:1"/></svg>