<svg xmlns="http://www.w3.org/2000/svg" xml:space="preserve" viewBox="0 0 300 300"><path d="M144.658 16.912c7.312-.844 14.992 2.021 19.906 7.516 3.338 4.104 5.582 9.271 5.557 14.614-.641 6.519-3.93 12.959-9.409 16.695-6.481 4.577-15.329 5.468-22.59 2.248-10.624-4.166-16.777-17.874-11.318-28.261 3.105-7.127 10.286-11.774 17.854-12.812"/><path d="M144.658 16.912c7.312-.844 14.992 2.021 19.906 7.516 3.338 4.104 5.582 9.271 5.557 14.614-.641 6.519-3.93 12.959-9.409 16.695-6.481 4.577-15.329 5.468-22.59 2.248-10.624-4.166-16.777-17.874-11.318-28.261 3.105-7.127 10.286-11.774 17.854-12.812"/><path d="M44.423 30.838c-2.817-5.21.547-12.559 6.537-13.283 4.416-.86 8.452 2.278 10.209 6.125 11.972 25.155 23.869 50.35 35.844 75.505 1.495 3.016 1.9 6.747-.006 9.686-1.405 1.625.022 3.477.614 5.095 13.457.021 26.779-4.122 38.231-11.104C152.279 93.675 166.549 80 174.674 62.86c2.092-3.658 3.09-8.144 6.299-11.033 4.471-2.88 10.094.565 12.4 4.681 1.918 2.798 1.064 6.245.677 9.346-1.42 9.474-7.114 17.813-14.427 23.795-13.925 13.432-31.899 22.203-50.651 26.534-9.92 2.298-20.263 2.209-30.227.234 2.274 4.862 4.956 9.607 6.548 14.742.794 2.889-4.045 4.335-5.375 1.846-3.352-6.381-6.134-13.064-9.174-19.603-4.343.292-8.341-2.257-10.091-6.196a35260 35260 0 0 1-36.23-76.368"/><path d="M44.423 30.838c-2.817-5.21.547-12.559 6.537-13.283 4.416-.86 8.452 2.278 10.209 6.125 11.972 25.155 23.869 50.35 35.844 75.505 1.495 3.016 1.9 6.747-.006 9.686-1.405 1.625.022 3.477.614 5.095 13.457.021 26.779-4.122 38.231-11.104C152.279 93.675 166.549 80 174.674 62.86c2.092-3.658 3.09-8.144 6.299-11.033 4.471-2.88 10.094.565 12.4 4.681 1.918 2.798 1.064 6.245.677 9.346-1.42 9.474-7.114 17.813-14.427 23.795-13.925 13.432-31.899 22.203-50.651 26.534-9.92 2.298-20.263 2.209-30.227.234 2.274 4.862 4.956 9.607 6.548 14.742.794 2.889-4.045 4.335-5.375 1.846-3.352-6.381-6.134-13.064-9.174-19.603-4.343.292-8.341-2.257-10.091-6.196a35260 35260 0 0 1-36.23-76.368m144.016 97.507c3.707-1.756 7.861-.72 11.764-.496 6.953 5.37 10.998 13.599 12.551 22.112 1.756 9.391 2.412 18.939 4.111 28.34 3.319 19.909 10.459 38.875 17.217 57.807 5.802 14.305 10.967 28.868 17.118 43.029l-.005 2.503a9.5 9.5 0 0 1-2.612-2.18c-6.281-7.747-12.46-15.577-18.8-23.274-9.127-10.516-15.061-23.234-21.68-35.359-9.469-19.349-18.385-39.107-24.224-59.896-2.379-7.38-3.478-15.307-2.355-23.015.521-4.06 2.997-8.048 6.915-9.571"/><path d="M188.439 128.345c3.707-1.756 7.861-.72 11.764-.496 6.953 5.37 10.998 13.599 12.551 22.112 1.756 9.391 2.412 18.939 4.111 28.34 3.319 19.909 10.459 38.875 17.217 57.807 5.802 14.305 10.967 28.868 17.118 43.029l-.005 2.503a9.5 9.5 0 0 1-2.612-2.18c-6.281-7.747-12.46-15.577-18.8-23.274-9.127-10.516-15.061-23.234-21.68-35.359-9.469-19.349-18.385-39.107-24.224-59.896-2.379-7.38-3.478-15.307-2.355-23.015.521-4.06 2.997-8.048 6.915-9.571m-29.095 14.225c3.762-1.021 8.434-2.71 11.691.37 3.977 3.571 3.49 9.486 2.499 14.252-1.12 7.202-4.968 13.544-8.845 19.571-5.561 7.785-11.559 15.303-16.221 23.688-8.418 14.93-14.837 30.863-21.201 46.746-4.352 11.992-8.473 24.075-13.347 35.871-2.638-.877-1.087-4.07-1.147-6.014 2.51-16.055 4.029-32.276 7.495-48.174 4.284-21.729 10.47-43.117 18.949-63.588 4.041-9.366 10.08-19.061 20.127-22.722"/><path d="M159.344 142.57c3.762-1.021 8.434-2.71 11.691.37 3.977 3.571 3.49 9.486 2.499 14.252-1.12 7.202-4.968 13.544-8.845 19.571-5.561 7.785-11.559 15.303-16.221 23.688-8.418 14.93-14.837 30.863-21.201 46.746-4.352 11.992-8.473 24.075-13.347 35.871-2.638-.877-1.087-4.07-1.147-6.014 2.51-16.055 4.029-32.276 7.495-48.174 4.284-21.729 10.47-43.117 18.949-63.588 4.041-9.366 10.08-19.061 20.127-22.722M52.38 181.4l.049-2.585c8.712.005 17.425.009 26.138-.002l.056 2.585a759 759 0 0 1 3.996-.025c0 33.67.006 67.338-.003 101.008q-3.116-.006-6.23 0c-.018-33.525.011-67.051-.015-100.576a555 555 0 0 1-7.741 0c-.026 33.525.002 67.051-.014 100.576q-3.116-.006-6.23 0c-.018-33.525.011-67.051-.015-100.576a555 555 0 0 1-7.741 0c-.026 33.525.002 67.051-.014 100.576q-3.117-.006-6.23 0c-.009-33.67-.003-67.338-.003-101.008q1.997.009 3.997.027"/><path d="m52.38 181.4.049-2.585c8.712.005 17.425.009 26.138-.002l.056 2.585a759 759 0 0 1 3.996-.025c0 33.67.006 67.338-.003 101.008q-3.116-.006-6.23 0c-.018-33.525.011-67.051-.015-100.576a555 555 0 0 1-7.741 0c-.026 33.525.002 67.051-.014 100.576q-3.116-.006-6.23 0c-.018-33.525.011-67.051-.015-100.576a555 555 0 0 1-7.741 0c-.026 33.525.002 67.051-.014 100.576q-3.117-.006-6.23 0c-.009-33.67-.003-67.338-.003-101.008q1.997.009 3.997.027"/></svg>