<svg xmlns="http://www.w3.org/2000/svg" xml:space="preserve" viewBox="0 0 300 300"><path d="M113.726 183.221c1.494 3.236 2.299 7.313 5.506 9.322-.726-16.253-4.121-32.315-6.186-48.462-4.128-28.273-7.81-56.752-16.081-84.19-2.264-7.196-3.01-15.523-8.642-21.077-5.36-4.727-13.7-.617-16.417 5.118-3.661 7.742-1.76 16.641.393 24.545 11.879 38.923 27.446 76.552 41.427 114.744m8.911 7.226 1.527.517c.532-4.456 2.288-8.626 3.002-13.044 3.553-18.67 7.569-37.258 10.655-56.014 1.767-10.887 2.25-21.917 2.893-32.91.197-4.131-.028-8.735-2.8-12.056-4.126-4.445-12.126-3.352-15.381 1.603-2.881 3.888-3.628 8.822-3.912 13.528-1.108 28.99 1.848 57.917 2.68 86.878.07 3.865.381 7.739 1.336 11.498m-52.746 22.977c-23.293-.106-46.595-.011-69.89-.043v6c24.084-.063 48.171.125 72.254-.096 1.943-2.293 1.116-6.182-2.364-5.861m208.099 30.315c-12.891 2.566-21.861 14.261-35.034 16.046-10.323 1.901-19.42-4.479-28.427-8.405-9.453-4.844-20.195-8.837-30.953-6.508-9.317 1.724-17.324 7.112-26.042 10.511-7.09 3.299-15.395 5.021-23.047 2.758-8.97-2.778-16.691-9.034-26.232-10.047-11.529-1.451-22.646 2.944-33.235 6.911-1.884.839-4.856 1.378-4.788 4.021-.576 2.508 2.838 3.32 4.66 2.652 10.011-3.376 19.981-8.195 30.794-7.719 10.069.896 18.226 7.554 27.723 10.313 4.992 1.306 10.262 1.127 15.338.438 14.521-2.491 26.244-13.594 41.217-14.362 12.86-.077 23.281 8.494 34.907 12.693 8.478 4.135 18.678 4.207 27.332.551 8.672-3.091 15.459-9.853 24.125-12.941 1.966-.833 4.605-.546 5.924-2.495 1.321-2.624-1.648-5.406-4.262-4.417"/><circle cx="164.968" cy="107.345" r="22"/></svg>