<svg xmlns="http://www.w3.org/2000/svg" viewBox="0 0 225 225"><path d="M98.107 5.129c-1.353.029-2.718.18-4.082.467-3.596.723-7.123 2.553-9.904 5.058-4.888 4.503-7.176 9.576-7.225 16.166-.05 6.788 1.578 10.866 6.16 15.596 2.233 2.306 3.685 3.383 5.926 4.465 12.702 6.172 27.554-.743 31.13-14.49.892-3.348.659-9.112-.5-12.436-3.179-9.14-12.032-15.029-21.505-14.826m3.041 49.066c-.923.02-1.859.17-2.794.473-3.933 1.03-7.217 4.189-8.282 8.129-2.832 6.487.144 13.67 4.344 18.793 4.148 5.127 8.652 9.955 12.7 15.166 7.78 9.866 17.202 20.163 26.091 27.137 10.145 7.908 21.455 14.347 32.932 20.3-5.406 4.94-11.37 7.133-18.16 7.504-2.271.115-4.953-.023-7.864-.342-.354-.473-.728-.991-1.076-1.453-8.91-11.448-18.894-22.683-31.494-30.082-8.29-3.29-17.334 3.398-18.623 11.291-4.909-3.819-8.456-6.216-19.014-15.492l-12.523-9.058c-5.773-3.118-8.944-7.253-20.094-10.698-.63-.18-3.811-1.242-7.047-2.293-4.866-1.619-6.68-2.217-7.527-2.175-.509.025-.67.281-.936.685-.772 1.175-2.265 5.872-2.023 6.358.253.54 12.626 2.933 22.262 7.564 5.215 3.197 14.342 8.416 18.326 11.611 9.334 7.797 19.009 15.996 26.392 21.594 2.516 1.907 4.77 3.5 7.198 4.998 9.372 13.551 16.937 17.731 39.78 40.379 5.223 13.512 1.368 28.26 1.28 42.309-.676 10.842-1.417 21.68-2.31 32.507.843-1.29 1.895-2.467 2.53-3.873 15.038-33.208 27.308-66.058 21.145-80.183-3.537-6.018-7.588-12.015-11.56-17.573 6.376-.017 11.945-.86 16.588-2.617 3.78-2.165 7.4-5.016 10.79-7.869 1.152.581 2.304 1.165 3.454 1.74 2.515 1.116 8.613 4.954 9.527 2.957-1.558-1.854-5.61-4.871-9.334-7.812 1.62-1.4 3.18-2.742 4.633-3.916 13.55-10.865 28.007-22.096 43.527-28.12 5.895-2.195 8.614-2.892 9.067-2.38 1.131 1.217 39.653 75.175 39.476 75.734-.223.708-9.79 8.83-12.248 10.389l-1.492.965-7.137-4.383a9649 9649 0 0 1-22.75-14.098c-8.561-5.321-16.184-9.854-16.955-10.138-3.404-1.156-5.505 2.523-2.799 4.851.689.545 2.986 2.09 5.17 3.475 2.16 1.336 4.072 2.674 4.25 3.017-.062.355-8.138 7.368-18.256 17.45-6.635 6.527-12.546 19.671-12.796 20.974-.219 1.085.462 2.138 1.855 2.905 1.55.846 4.04-.658 5.84-5.245 3.216-8.192 13.741-19.394 24.428-29.074 1.306-1.009 4.357-1.844 6.107-2.271l5.63 2.703c11.372 7.19 27.954 17.213 28.448 17.205.543-.033 18.394-14.555 19.705-15.984.377-.414.7-1.174.74-1.694.016-.568-2.414-5.595-5.421-11.254s-12.874-24.376-21.938-41.611-16.57-31.357-16.719-31.404-.666.034-1.146.129c-1.97.402-6.077 1.606-10.168 3.02-23.275 7.868-37.679 21.233-53.943 34.614-.262-.252-.56-.517-.784-.754-19.984-20.439-33.905-35.473-36.515-41.025-8.227-14.467-16.415-26.886-22.12-38.787-2.582-3.005-6.363-5.356-10.367-5.268M8.283 189.094l.022 9.08 49.216 28.062-.332 68.641h7.297l-.164-72.45zm183.733 87.55c-.096.01-1.018.895-2.05 1.965-2.11 2.19-5.7 4.49-11.405 7.305-8.474 4.182-8.91 4.29-13.104 3.275-5.829-1.41-11.735-4.673-17.814-9.841l-2.282-1.94-3.16 2.764c-3.29 2.876-6.52 4.94-12.377 7.914-3.456 1.755-3.456 1.756-5.44 1.59-6.275-.527-15.268-5.232-20.812-10.89-2.092-2.137-2.194-2.137-3.404-.005-1.548 2.728-6.77 6.295-14.406 9.84-2.024.94-3.933 1.972-4.24 2.295-1.058 1.108-.44 3.04 1.154 3.602 1.17.412 1.472.328 5.615-1.559 4.719-2.15 9.373-4.807 11.922-6.807.996-.781 1.886-1.42 1.978-1.42s1.079.695 2.19 1.545c3.837 2.935 9.284 5.778 13.54 7.069 2.775.84 7.427 1.535 8.907 1.328 2.245-.314 12.508-5.66 16.213-8.447 2.68-2.016 2.275-2 4.7-.204 6.867 5.09 15.294 8.442 21.54 8.569 2.254.046 2.566-.027 5.12-1.168 5.645-2.524 12.1-5.872 15.431-8.006l1.19-.762 1.9 1.537c4.712 3.811 11.233 6.642 18.558 8.057 4.435.857 4.675.817 9.512-1.541 5.134-2.503 9.286-4.91 11.574-6.711l1.686-1.326 1.459 1.078c3.101 2.292 7.304 4.79 10.135 6.023 3.67 1.599 6.469 2.361 10.207 2.78l2.9.324 3.313-1.463c7.064-3.12 15.459-8.48 17.527-11.19 1.231-1.612-.065-3.642-2.326-3.642-.994 0-1.427.233-2.916 1.557-4.249 3.777-14.8 9.625-17.367 9.625-1.91 0-5.825-1.044-8.743-2.33-4.313-1.903-7.279-3.85-11.252-7.385-1.986-1.769-3.656-3.167-3.709-3.11-.052.058-.564.838-1.14 1.73-.576.894-1.73 2.22-2.565 2.948-1.89 1.652-7.177 4.803-11.318 6.744-2.98 1.398-3.236 1.465-4.85 1.3-4.376-.45-11.643-3.256-15.662-6.05-2.416-1.68-3.444-2.817-4.865-5.379-.49-.884-.969-1.598-1.064-1.587" style="fill:#000;stroke-width:.299084" transform="scale(.75)"/></svg>