<svg xmlns="http://www.w3.org/2000/svg" id="a" viewBox="0 0 300 300"><defs><style>.b{fill:none;stroke:#000;stroke-linecap:round;stroke-miterlimit:10;stroke-width:6px}</style></defs><circle cx="195.96" cy="69.43" r="21.5" style="stroke-width:0"/><path d="M258.05 221.3c.83 3.81-.23 7.96-3.2 10.93h0c-4.63 4.63-12.14 4.63-16.77 0l-71.22-71.22" class="b"/><circle cx="246.85" cy="203.22" r="6" class="b"/><path d="M193.78 108.95c.71-8.52-9.99-13.12-15.65-6.56-4.7 5.31-7.83 10.44-10.89 17.36-4.08 8.27-4.89 16.74-3.38 24.82-5.98-10.95-9.48-22.92-7.96-38.88.23-9.54.63-19.15-.89-28.7-1.87-10.56-16.71-11.34-19.58-.87-4.96 22.89-1.8 49.64 11.77 69.15 10.72 14.25 25.58 24.68 40.04 34.79.53.39 1.2-.34.81-.84l-.09-.12c-.29-1.33-1.68-3.62-1.87-4.43-3.96-9.82-8.31-20.72-7.34-31.36 1.44-12.49 14.38-20.96 15.03-34.35ZM148.07 166c-7.94-18.67-31.49-35.59-47.9-45.9-15.23-9.1-29.98 11.23-16.5 22.88 4.92 3.96 10.11 7.79 15.25 11.61-4.47 11.24-8.36 22.94-17.12 31.1-19.63 13.7-39.22 28.24-56.64 44.83-.8.69.17 1.95 1.04 1.45 21.89-10.9 43.54-20.45 65.75-30.57 12.65-6.22 20.02-19.18 26.34-31.39.71.67 1.41 1.34 2.04 2 1.62 1.66 3.15 3.28 4.39 5.21 2.33 3.61 2.77 6.33 2.08 10.87-.91 4.94-3.1 10.84-5.75 16.69-8.4 18.14-17.99 36.12-25.72 54.77-.15.37-.07.81.23 1.1.4.38 1.03.35 1.4-.05 14.01-15.12 27.68-29.87 40.1-46.4 10.1-13.38 18.92-30.65 11.01-48.19Z" style="stroke-width:0;fill:#010101"/></svg>