<svg xmlns="http://www.w3.org/2000/svg" data-name="Ebene 1" viewBox="0 0 300 300"><circle cx="128.07" cy="42.391" r="21.5"/><circle cx="128.07" cy="272.109" r="7"/><path d="M84.384 277.442c-3.155-22.751-3.182-46.045 1.048-68.674 4.34-22.98 13.563-45.978 28.217-64.34A11.854 11.854 0 0 1 130.3 142.5c5.061 3.981 5.474 10.482 2.847 15.817-9.174 21.53-22.327 41.292-29.855 63.566A359 359 0 0 0 92.1 261c-1.319 5.408-2.457 11.021-3.819 16.434a1.97 1.97 0 0 1-3.897.008m110.702 1.241c-9.231-7.045-18.308-14.12-27.283-21.511-11.772-10.009-24.359-20.34-30.767-35.258-5.879-13.939-4.917-29.426-2.587-43.991a190 190 0 0 1 4.751-21.468 12.36 12.36 0 0 1 15.292-8.476c6.276 1.758 9.508 7.818 8.975 13.887.071 11.072-1.956 22.246-3.42 32.809-1.244 9.385-2.282 16.911 1.311 25.419 4.191 9.705 10.747 18.113 16.941 26.871 6.673 9.334 13.524 18.829 19.669 28.883 1.364 1.8-1.1 4.262-2.882 2.835m-49.18-185.602c-24.525 5.788-70.178 1.862-83.739-22.621-3.773-7.115-3.156-15.783.722-22.686a49.5 49.5 0 0 1 13.158-14.518 1.474 1.474 0 0 1 2.116 2.014 57 57 0 0 0-7.023 12.2c-3.107 7.882-2.428 15.483 5.319 20.193 19.521 10.671 44.69 4.925 65.93 3.273 13.911-.953 17.002 18.776 3.517 22.145"/><path d="M240.121 81.952a10.96 10.96 0 0 1-5.594 7.417 1.875 1.875 0 0 1-2.68-1.194 42.6 42.6 0 0 1-.189-19.255 10.99 10.99 0 0 1 8.463 13.032Z" style="stroke:#000;stroke-miterlimit:10;stroke-width:6px"/><path d="M231.658 68.92 74.938 35.608" style="stroke:#000;stroke-miterlimit:10;stroke-width:6px;fill:none;stroke-linecap:round"/></svg>