<svg xmlns="http://www.w3.org/2000/svg" xml:space="preserve" viewBox="0 0 300 300"><path d="M250.877 14.914c-14.088 12.23-28.292 24.328-42.548 36.362-20.063 16.949-39.824 35.173-52.834 58.305-2.341 4.735-2.097 12.168 3.404 14.562 7.348 2.1 15.379-1.442 19.969-7.296 22.044-26.027 41.151-54.333 60.896-82.097 5.353-8.016 12.459-14.918 16.586-23.705-2.356.413-3.832 2.339-5.473 3.869m-102.215 104.69c1.64-4.645.402-9.736-1.252-14.2-2.846-7.184-8.792-12.348-13.938-17.864-21.47-22.579-45.776-42.186-68.282-63.684-4.535-3.959-8.345-8.95-13.769-11.755.178 2.716 2.467 4.458 3.829 6.607 8.762 13.244 17.919 26.229 26.433 39.638 15.038 22.679 30.429 45.927 52.195 62.787 2.162 1.466 4.162 3.935 7.039 3.59 3.364.278 6.713-1.899 7.745-5.119m13.531 76.177c-1.5-3.092-4.726-5.012-8.068-5.429-4.312 1.224-8.241 4.448-9.73 8.757-1.161 3.747-1.58 7.713-1.548 11.628.916 13.774 2.991 27.431 5.189 41.049 2.458 14.2 4.887 28.415 7.966 42.497q1.535-.639 1.633-2.203c3.359-27.271 5.12-54.701 6.267-82.139-.053-4.732.543-9.801-1.709-14.16"/><circle cx="188.969" cy="214.352" r="22"/></svg>