<svg xmlns="http://www.w3.org/2000/svg" data-name="Layer 1" viewBox="0 0 300 300"><circle cx="150" cy="26.572" r="12.695" style="fill:none;stroke:#000;stroke-linecap:round;stroke-miterlimit:10;stroke-width:6px"/><circle cx="195.893" cy="68.48" r="21.5"/><path d="M64.768 284.922c16.877-32.665 35.639-64.323 58.218-93.454a198.6 198.6 0 0 1 25.665-27.128 12.8 12.8 0 0 1 18.041 1.4c4.49 5.175 3.7 12.31-.282 17.294a153 153 0 0 1-10.579 14.07c-10.774 13.108-24.378 26.361-36.183 38.706-11.638 12.078-26.107 27.176-38.048 38.846-4.253 4.183-8.942 8.7-13.4 12.67a2.125 2.125 0 0 1-3.432-2.404m20.344-94.648c7.306-15.072 16.9-29.735 29.823-40.557 3.009-2.518 7.587-4.641 11.16-6.366 13.644-6.374 25.145 11.43 13.95 21.264-13.756 11.663-25.477 25.225-36.4 39.531-9.876 11.476-26.233-.92-18.533-13.872M140.6 90.587c-13.167-7.357-31.105-20.88-32.267-37.262-.456-13.618 11.614-22.993 21.268-30.436a197 197 0 0 1 9.253-6.468 1.483 1.483 0 0 1 2 2.11c-5.094 7.539-20.642 24.291-17.658 33.187 2.317 4.692 6.633 7.292 11.039 10.52 5.44 3.786 11.562 7.569 17.137 12.234 8.839 7.561-.503 21.386-10.772 16.115m101.877 52.482c-.962-12.782-17.263-28.068-26.866-35.733-9.937-7.285-22.29 5.543-14.4 15.223 7.192 8.977 16.719 14.756 23.865 23.028-1.493 2.9-4.239 4.908-6.706 7.038-5.636 4.694-21.311 14.9-27.571 19.237a1.605 1.605 0 0 0 1.36 2.853c12.378-3.183 24.588-6.444 36.188-12.081 7.518-3.565 14.972-10.51 14.13-19.565"/></svg>