<svg xmlns="http://www.w3.org/2000/svg" xml:space="preserve" viewBox="0 0 300 300"><path d="M231.584 18.897c10.576-1.24 21.188 6.127 23.729 16.472 2.828 10.501-4.086 22.324-14.439 25.375-4.85 1.695-10.268 1.52-15.029-.382-10.098-3.537-16.727-15.631-13.143-25.93 2.345-8.442 10.28-14.574 18.882-15.535"/><path d="M231.584 18.897c10.576-1.24 21.188 6.127 23.729 16.472 2.828 10.501-4.086 22.324-14.439 25.375-4.85 1.695-10.268 1.52-15.029-.382-10.098-3.537-16.727-15.631-13.143-25.93 2.345-8.442 10.28-14.574 18.882-15.535M114.993 59.296c13.676-.77 27.383-.657 41.058-1.446 5.655-.017 11.307-.291 16.96-.03 9.947.315 20.593-1.466 29.745 3.479 3.928 1.902 6.895 7.323 3.86 11.211-3.657 3.963-9.675 3.665-14.633 3.916-9.424-.27-18.925-.904-28.109-3.167-16.264-3.365-32.545-6.661-48.806-10.043-3.348-.839-7.046-.731-10.057-2.602 3.251-.908 6.636-1.054 9.982-1.318"/><path d="M114.993 59.296c13.676-.77 27.383-.657 41.058-1.446 5.655-.017 11.307-.291 16.96-.03 9.947.315 20.593-1.466 29.745 3.479 3.928 1.902 6.895 7.323 3.86 11.211-3.657 3.963-9.675 3.665-14.633 3.916-9.424-.27-18.925-.904-28.109-3.167-16.264-3.365-32.545-6.661-48.806-10.043-3.348-.839-7.046-.731-10.057-2.602 3.251-.908 6.636-1.054 9.982-1.318m127 8.409c2.869-1.62 6.563-3.455 9.753-1.625 5.576 3.98 7.811 11.207 7.597 17.822-.382 11.031-4.089 21.939-10.369 31.003-2.212 2.74-4.308 5.882-7.505 7.534-4.186.862-8.59.106-12.498-1.53-7.512-3.076-15.024-6.412-21.513-11.368-5.315-3.999-11.226-7.497-15.265-12.906 4.409-.295 8.695 1.577 13.041 2.256 7.221 2.511 15.011 2.713 22.15 5.479 2.626.939 5.43 1.188 8.203 1.176 2.272-12.594 2.341-25.619 6.406-37.841"/><path d="M241.993 67.705c2.869-1.62 6.563-3.455 9.753-1.625 5.576 3.98 7.811 11.207 7.597 17.822-.382 11.031-4.089 21.939-10.369 31.003-2.212 2.74-4.308 5.882-7.505 7.534-4.186.862-8.59.106-12.498-1.53-7.512-3.076-15.024-6.412-21.513-11.368-5.315-3.999-11.226-7.497-15.265-12.906 4.409-.295 8.695 1.577 13.041 2.256 7.221 2.511 15.011 2.713 22.15 5.479 2.626.939 5.43 1.188 8.203 1.176 2.272-12.594 2.341-25.619 6.406-37.841M53.979 116.882c22.002-1.1 44.044-1.187 66.057-2.043 14.667-.243 29.332.094 44.004-.027 9.477-.167 19.34 1.331 27.5 6.431 3.228 1.99 5.513 5.746 5.188 9.595-2.235 2.7-5.065 4.944-8.235 6.451-8.824 4.406-19.008 3.135-28.5 2.594-13.105-.589-26.072-2.711-38.87-5.518-26.03-4.873-52.097-9.554-78.143-14.347a54 54 0 0 1-4.144-1.042c4.732-2.107 10.128-1.26 15.143-2.094"/><path d="M53.979 116.882c22.002-1.1 44.044-1.187 66.057-2.043 14.667-.243 29.332.094 44.004-.027 9.477-.167 19.34 1.331 27.5 6.431 3.228 1.99 5.513 5.746 5.188 9.595-2.235 2.7-5.065 4.944-8.235 6.451-8.824 4.406-19.008 3.135-28.5 2.594-13.105-.589-26.072-2.711-38.87-5.518-26.03-4.873-52.097-9.554-78.143-14.347a54 54 0 0 1-4.144-1.042c4.732-2.107 10.128-1.26 15.143-2.094m146.703 23.641c1.581-4.031 5.158-6.773 9.263-7.905 3.833 1.291 7.512 3.648 9.087 7.546 4.743 10.266 4.092 21.89 4.91 32.909 1.142 13.003-1.377 25.911-1.623 38.894-1.471 23.299-2.613 46.625-4.318 69.905-2.004-1.309-1.764-3.907-2.375-5.929-2.71-11.95-4.422-24.088-6.466-36.162-3.244-19.995-6.841-39.947-9.021-60.096-1.528-12.925-5.022-26.695.543-39.162"/><path d="M200.682 140.523c1.581-4.031 5.158-6.773 9.263-7.905 3.833 1.291 7.512 3.648 9.087 7.546 4.743 10.266 4.092 21.89 4.91 32.909 1.142 13.003-1.377 25.911-1.623 38.894-1.471 23.299-2.613 46.625-4.318 69.905-2.004-1.309-1.764-3.907-2.375-5.929-2.71-11.95-4.422-24.088-6.466-36.162-3.244-19.995-6.841-39.947-9.021-60.096-1.528-12.925-5.022-26.695.543-39.162"/></svg>