<svg xmlns="http://www.w3.org/2000/svg" xml:space="preserve" viewBox="0 0 300 300"><path d="M300 225.381v-6c-9.964-.039-19.928.082-29.89-.07-8.115-10.576-16.029-21.457-25.891-30.504-6.438-5.453-14.223-11.277-23.178-10-13.316.927-23.808 10.768-30.954 21.295-9.226-12.051-18.439-24.113-27.804-36.056 17.198 2.079 34.41 4.134 51.719 5.012 12.004.621 23.981 1.607 35.967 2.477 5.927.139 12.258.95 17.765-1.79 4.014-1.78 6.211-6.302 6.086-10.548-2.939-7.852-12.548-9.002-19.791-8.152-29.922.46-59.578 4.976-89.414 6.855-6.41.803-13.174.01-19.233 2.631 3.371 1.602 8.033 1.319 10.171 4.84 10.301 13.56 20.804 26.97 31.11 40.53-2.294 4.645-4.648 9.262-6.95 13.904-16.243-.08-32.507.227-48.737-.141-3.378-3.168-5.641-7.328-8.656-10.827-8.394-10.286-16.924-21.327-29.17-27.213-5.753-2.997-12.578-2.109-18.557-.329-10.445 3.514-18.27 11.952-24.212 20.914-10.057-12.738-19.998-25.568-30.078-38.287 12.552 1.379 25.078 2.983 37.666 4.006 12.954 1.129 25.963 1.453 38.919 2.568 9.053.521 18.12 1.735 27.199 1.006 4.339-.342 8.767-2.676 10.63-6.76.986-2.316 1.871-5.302.103-7.48-2.725-4.298-7.929-6.107-12.8-6.338-33.153.062-66.033 4.994-99.083 7.054-6.189.749-12.732-.021-18.559 2.579a83 83 0 0 0 7.173 2.147c11.703 15.229 23.687 30.246 35.488 45.4-2.047 3.958-3.724 8.133-6.148 11.882-13.608.617-27.262.327-40.89.396v5.8c20.334.108 40.687-.214 61.009.153 2.448 2.147 4.147 5.001 6.213 7.498 17.33 22.043 34.559 44.17 51.945 66.168h4.964l1.55-1.642c-18.748-24.139-37.691-48.138-56.554-72.19 15.296-.114 30.605.347 45.889-.352 28.982-.001 57.969.062 86.947-.132 19.015 24.803 38.138 49.521 57.163 74.314h4.961c.422-.402 1.264-1.209 1.685-1.611-18.666-24.272-37.326-48.556-56.05-72.785 30.095.193 60.183-.2 90.277-.222m-235.117-5.299c-2.427-1.827-3.954-4.559-5.881-6.861 6.604-6.652 13.954-12.92 22.85-16.229 9.045 5.363 14.851 14.469 20.28 23.184-12.416-.063-24.839.145-37.249-.094m125.775-.471a285 285 0 0 0 3.817-3.554c.964 1.188 1.929 2.38 2.914 3.556q-3.367-.004-6.731-.002m14.717-.136c-2.594-2.387-4.406-5.461-6.549-8.229 6.551-5.984 13.378-12.367 22.012-15.057 9.44 5.065 14.928 14.835 20.719 23.453-12.059-.16-24.135.197-36.182-.167"/><circle cx="241.463" cy="122.343" r="21.875"/><circle cx="103.46" cy="122.346" r="21.875"/></svg>