<svg xmlns="http://www.w3.org/2000/svg" id="a" viewBox="0 0 300 300"><defs><style>.c{stroke-width:0}</style></defs><path d="M106.244 102.763c-10.104 1.843-18.197 8.312-22.497 16.823a4.97 4.97 0 0 0 1.078 5.909c7.027 6.446 16.883 9.641 26.987 7.798s18.197-8.312 22.497-16.823a4.97 4.97 0 0 0-1.078-5.909c-7.027-6.446-16.883-9.641-26.987-7.798Z" style="fill:none;stroke:#000;stroke-miterlimit:10;stroke-width:6px"/><path d="M94.695 149.188c-14.116-.511-18.642 18.725-5.568 24.479a339 339 0 0 0 6.43 2.729c-10.169 13.686-19.145 28.2-30.184 41.349-14.543 18.125-30.274 36.54-43.449 55.775a.56.56 0 0 0 .752.815c4.872-3.333 9.613-6.802 14.408-10.213 14.375-10.323 28.591-20.807 42.34-31.979 15.748-12.606 29.698-27.616 41.322-44.158a76 76 0 0 1 4.255 2.67c2.45 1.714 5.13 4.007 6.022 6.082.135.421.275.502.241 1.301-.014 1.128-.634 2.729-1.123 3.86-3.211 6.679-7.749 11.837-12.901 17.875-7.551 8.681-16.146 17.355-23.47 26.457-.175.189-.282.427-.167.687a.546.546 0 0 0 .722.273c10.698-4.829 21.367-9.823 31.851-15.878 12.721-7.664 29.248-18.757 30.425-35.231 1.494-28.344-37.765-46.947-61.906-46.893m72.923-68.354c18.47-.486 36.898 1.702 55.107 4.693 15.925 2.877 38.777 6.141 54.994 8.476.337.049.57.362.521.699a.63.63 0 0 1-.558.531c-25.145 5.153-50.631 6.36-76.16 6.581-11.623.012-23.224-.307-34.791-1.809-11.679-1.834-10.859-18.449.888-19.171Zm-63.977 55.821c-13.649-.756-30.497-2.428-41.272-12.063-9.539-8.89-7.634-21.918.206-31.261 8.745-10.653 21.562-17.433 34.247-21.964 13.805-4.118 20.088 15.21 6.51 20.177-8.179 3.65-28.337 11.404-30.285 20.379.06 6.102 14.695 13.887 19.754 16.907 3.541 2.128 7.288 4.075 11.05 6.585l.165.11c.514.314.233 1.192-.375 1.132Z" style="stroke-width:0;fill:#010101"/><circle cx="143.407" cy="57.573" r="21.5" class="c"/><path d="m181.381 283.9 39.16-62.92h-32.45l3.3-15.62h53.79l-2.42 11.33-40.26 67.21zm72.269 1.1q-11.442.001-18.48-3.52v-14.85q8.689 4.841 17.49 4.84 2.859 0 5.72-1.155 2.86-1.154 2.86-4.015 0-1.32-.66-2.475-.66-1.154-2.53-2.53t-5.5-3.355q-5.72-3.079-8.524-6.82-2.805-3.739-2.805-9.57 0-9.019 6.05-14.08 6.048-5.059 17.819-5.06 5.5.001 10.396 1.265 4.894 1.266 9.515 4.125l-5.83 12.43a39.3 39.3 0 0 0-6.819-3.355q-3.632-1.375-7.04-1.375-2.311.001-3.905 1.1-1.595 1.1-1.595 3.3-.002 1.761 1.705 3.19 1.705 1.431 5.994 3.63 5.83 2.862 9.075 6.875 3.244 4.016 3.245 9.845 0 10.782-7.095 16.17-7.096 5.39-19.085 5.39Z" class="c"/></svg>