<svg xmlns="http://www.w3.org/2000/svg" viewBox="0 0 300 300"><path d="M263.399 124.183a21.569 20.915 0 1 1-43.138 0 21.569 20.915 0 1 1 43.138 0" style="opacity:1;fill:#000;fill-opacity:1" transform="matrix(1.0303 0 0 1.06249 -6.021 -3.878)"/><path d="M195.777 154.064s16.747-.797 19.14-.399c2.392.4 6.38 1.994 6.38 5.981s-1.596 7.576-8.374 9.171-21.133-3.588-21.133-3.588z" style="fill:#000;stroke:#000;stroke-width:1px;stroke-linecap:butt;stroke-linejoin:miter;stroke-opacity:1;fill-opacity:1"/><path d="M268.347 157.653c-5.96.125-9.627 6.563-9.006 12.413.898 8.474-7.962 16.283-16.581 16.394-13.699 2.211-27.99-1.402-39.572-8.873-4.235-1.151-6.793-5.833-11.409-5.972-.234 5.135 4.554 8.183 7.689 11.485 14.994 15.525 38.792 22.6 59.602 16.119 14.062-5.29 22.42-22.76 16.828-36.889-1.417-2.717-4.285-5.214-7.551-4.677z" style="fill:#000;fill-opacity:1;stroke:#000;stroke-width:1px;stroke-linecap:butt;stroke-linejoin:miter;stroke-opacity:1"/><path d="M-8.496 232.687s162.073 4.575 326.107-22.22 162.073-25.487 162.073-25.487M-5.882 291.504c24.363-13.46 55.07-16.515 80.828-5.158 37.844 6.981 48.145-4.371 70.715-14.563 25.765-11.636 49.839-1.925 72.98 7.124 24.596 9.617 52.172-5.502 75.557-17.524 5.533-2.845 12.904-3.45 19.492-2.555" style="fill:none;stroke:#000;stroke-width:7;stroke-linecap:butt;stroke-linejoin:miter;stroke-opacity:1;stroke-miterlimit:4;stroke-dasharray:none"/><path d="m235.267-12.383-55.549 238.535M96.721-15.65S13.071 88.26-3.921 147.076" style="fill:none;stroke:#000;stroke-width:7;stroke-linecap:butt;stroke-linejoin:miter;stroke-miterlimit:4;stroke-opacity:1;stroke-dasharray:none"/><path d="M45.746 54.276S92.8 40.552 220.89 52.97M14.377 105.25s100.643-12.416 193.442-.653m-22.873 99.989s-92.146-13.07-194.095 1.96" style="fill:none;stroke:#000;stroke-width:7;stroke-linecap:butt;stroke-linejoin:miter;stroke-opacity:1;stroke-miterlimit:4;stroke-dasharray:none"/></svg>