<svg xmlns="http://www.w3.org/2000/svg" xml:space="preserve" viewBox="0 0 300 300"><path d="M261.675 60.491c-3.119-1.041-6.429-.608-9.647-.671-34.329-.009-68.658.018-102.986-.014-2.686 0-5.323.677-8.012.592-15.008-.049-30.016.012-45.024-.032-2.301.016-4.718-.257-6.85.805-5.391-.579-10.764-1.362-16.168-1.778-3.237.512-7.2.196-9.555 2.909-4.099 4.011-4.292 10.837-1.61 15.674 2.401 2.331 5.847 3.376 9.151 3.259 9.397.064 18.827-.498 28.091-2.136 14.491-1.895 28.916-4.441 43.443-6.017 3.444 8.008 9.122 15.214 16.646 19.739 8.406 5.611 19.517 5.958 28.819 2.508 3.543-2.13 6.364-5.241 9.004-8.378 5.121-6.614 9.323-14.045 11.418-22.192 17.68-.012 35.381.328 53.048-.172.327-1.345.374-2.723.232-4.096m-76.698 23.466c-6.2.523-12.957-1.975-16.703-7.13-1.592-2.103-3.09-4.273-4.586-6.442 12.037-.028 24.076.035 36.115-.033-4.416 5.024-7.709 11.973-14.826 13.605m20.476 190.821c-3.291-11.554-6.318-23.183-9.826-34.67-8.076-24.559-19.529-48.096-34.467-69.23-4.799-5.919-8.688-12.571-14.052-18.022-4.199-4.49-9.908-7.494-15.969-8.466-3.709.545-7.37 2.164-9.404 5.464-4.034 5.248-2.503 12.543.796 17.742 5.038 8.633 12.812 15.068 19.463 22.371 23.412 25.445 40.601 55.686 57.494 85.636 2.256 4.551 3.506 9.61 6.6 13.73 1.006-1.285.711-2.905.625-4.382-.332-3.402-.255-6.878-1.26-10.173M101.417 146.612c-4.956 1.333-7.8 6.107-9.266 10.692-2.591 7.976-1.682 16.445-1.838 24.682.128 32.878-8.523 64.867-16.708 96.451-1.226 4.595-4.424 8.646-4.483 13.521.548 1.409 1.599-.176 2.034-.706 2.085-2.68 4.344-5.237 6.198-8.085 7.13-12.926 14.235-25.875 20.653-39.172 10.932-24.299 18.768-50.268 20.648-76.944.531-7.061-1.869-14.447-6.974-19.441-3.106-1.647-6.898-1.946-10.264-.998"/><circle cx="121.462" cy="35.336" r="21.875"/></svg>