<svg xmlns="http://www.w3.org/2000/svg" xml:space="preserve" viewBox="0 0 300 300"><path d="M47.476 118.183c-1.15.062-2.297.25-3.4.59-5.307 1.828-9.52 5.928-12.918 10.268-4.15 6.606-3.728 15.93 1.243 22.008l13.8 12.59c25.05 22.861 42.982 39.725 71.781 67.334l11.97 12.59c2.36 2.708 4.851 5.27 7.913 7.228 4.78 3.114 11.267 2.783 16.09-.066 5.496-3.41 10.344-7.978 13.735-13.506 2.601-4.615.954-10.679-3.14-13.865-7.766-6.705-16.753-11.74-24.853-18.02-31.06-22.724-45.237-36.888-68.871-67.464-4.28-5.784-7.449-12.656-13.539-16.841-2.817-2-6.36-3.03-9.81-2.845z" style="fill:#fff;stroke:#000;stroke-width:7;stroke-miterlimit:4;stroke-dasharray:none;stroke-opacity:1;paint-order:fill markers stroke"/><path d="M187.727 35.941c10.306-1.429 20.779 5.715 23.398 15.75 2.657 8.732-1.39 18.617-8.835 23.647-5.605 3.597-12.876 4.701-19.155 2.274-6.892-2.288-12.168-8.365-13.737-15.422-1.735-5.236-.133-10.889 2.342-15.604 3.168-5.918 9.472-9.627 15.987-10.645m76.99 45.548c4.313-10.387 9.244-20.54 12.246-31.412 1.371 8.266.232 16.637.406 24.954.171 10.066 1.367 21.114-4.111 30.117-1.883 3.512-5.629 5.623-9.479 6.229-9.98 1.059-20.041-.609-29.609-3.439-6.287-1.846-12.707-4.104-17.768-8.41-3.357-2.739-5.105-7.604-3.336-11.727 1.396-3.98 5.922-5.845 9.889-5.636 7.599-.459 14.634 2.716 21.625 5.191 4.52 1.78 8.727 4.246 13.133 6.279 2.33-4.049 5.162-7.829 7.004-12.146m-194.7-6.653c18.66.774 37.366 2.854 56.032 1.043 11.381-.479 22.851-2.718 34.201-.706 5.798 1.542 8.744 9.961 4.422 14.415-2.042 2.517-5.183 4.01-8.389 4.27-8.281 1.2-16.504-.884-24.722-1.637-12.179-2.114-24.102-5.458-36.066-8.526-8.924-1.554-17.091-5.629-25.478-8.859m50.205 34.421c9.127-6.066 18.587-12.888 29.872-13.787 5.714-.673 11.05 2.667 14.38 7.083 6.079 8.943 10.518 18.924 13.583 29.278 4.677-4.61 9.81-10.232 16.915-10.206 3.869.413 8.172 1.911 10.105 5.571 2.084 3.36 1.537 7.482 1.002 11.192-1.443 7.044-5.213 13.414-10.008 18.698-9.137 10.065-20.246 18.048-31.493 25.571-8.929 6.139-18.553 11.172-28.229 16.01 5.995-11.563 13.95-22.073 19.648-33.797-.933-4.036-3.648-7.492-4.519-11.598-3.252-10.151-4.748-20.715-6.448-31.205-17.621 4.538-34.6 11.28-52.236 15.779-4.711 1.213-9.361 2.675-14.132 3.646 4.69-4.577 9.306-9.259 14.312-13.494 9.031-6.32 18.239-12.388 27.248-18.741"/><path d="M50.65 141.482c0-4.008 3.257-7.258 7.274-7.257s7.272 3.25 7.272 7.258c0 4.01-3.256 7.259-7.272 7.258-4.017 0-7.273-3.25-7.273-7.259z" style="fill:#000;stroke:#000;stroke-width:1;stroke-miterlimit:4;stroke-dasharray:none;stroke-opacity:1"/><path d="M30.566 159.453c0-4.009 3.256-7.258 7.273-7.257 4.017 0 7.273 3.25 7.273 7.258 0 4.009-3.256 7.258-7.273 7.257-4.017 0-7.273-3.25-7.273-7.258z" style="fill:#000;stroke:#fff;stroke-width:4;stroke-miterlimit:4;stroke-dasharray:none;stroke-opacity:1;paint-order:markers stroke fill"/><path d="M134.161 221.822c0-4.01 3.257-7.259 7.273-7.258 4.017.001 7.273 3.251 7.273 7.259s-3.256 7.258-7.273 7.257c-4.016 0-7.273-3.25-7.273-7.258z" style="fill:#000;stroke:#000;stroke-width:1;stroke-miterlimit:4;stroke-dasharray:none;stroke-opacity:1"/><path d="M114.077 239.792c0-4.008 3.256-7.258 7.272-7.257 4.017 0 7.273 3.25 7.273 7.258 0 4.009-3.256 7.259-7.273 7.257-4.016 0-7.272-3.25-7.272-7.258z" style="fill:#000;stroke:#fff;stroke-width:4;stroke-miterlimit:4;stroke-dasharray:none;stroke-opacity:1;paint-order:markers stroke fill"/></svg>