<svg xmlns="http://www.w3.org/2000/svg" viewBox="0 0 300 300"><path d="M15.338 62.52a53.7 53.7 0 0 1 8.646 2.055c27.21 7.782 55.021 13.99 81.076 25.289 4.725 1.9 8.41 6.173 9.515 11.137.944 4.639-3.089 8.78-7.526 9.216-3.777.271-7.802.633-11.333-1.034-18.147-9.46-71.424-41.13-80.378-46.663m144.959 54.884c-2.104.061-4.172.641-5.801 2.023-2.88 3.043-2.676 7.779-1.143 11.42 2.036 4.656 6.453 7.582 10.592 10.211 11.305 8.52 45.474 26.094 56.178 30.832-2.485-.856-5.066-1.368-7.654-1.779l-.922 5.191 37.549 6.301c6.034 8.83 15.184 15.213 25.082 19.025 5.869 1.729 13.398 2.537 18.064-2.285 5.961-6.526 7.799-17.588 2.104-24.846-3.496-4.728-9.841-5.868-15.354-6.059-10.33 1.56-20.771 3.62-29.939 8.877-7.865-1.161-15.759-2.459-23.537-4.1-3.938-2.898-6.879-6.96-10.654-10.072-13.91-11.772-26.559-24.902-40.168-36.996-3.49-2.521-6.302-6.295-10.66-7.354a15 15 0 0 0-3.737-.389m119.234 54.207c3.979.038 8.216.843 11.027 3.844v.002h.002c2.197 2.555 3.52 5.982 2.973 9.385v.006c-.118 2.501-.73 5.229-1.963 7.545s-3.09 4.223-5.691 5.068l-.002.002h-.002c-7.399 1.797-14.417-2.153-20.43-5.965-4.915-3.259-10.208-6.862-12.553-12.533l-.018-.043.039-.021c7.725-4.132 16.468-5.484 24.926-7.26l.004-.002h.004a34 34 0 0 1 1.684-.028m-166.758-7.748c10.751-7.418 23.419-11.88 36.281-13.877 6.313-.729 13.423-.876 18.815 3.014 4.917 4.593 3.722 12.024 3.916 18.088-1.328 18.278-5.692 36.46-13.423 53.107-2.529 5.271-5.311 10.646-9.911 14.43 1.132-16.175 1.711-32.384 2.266-48.59.205-5.004.941-9.993.57-15.01-6.381 3.078-12.937 5.782-19.262 8.977-5.378 2.252-11.345 3.014-17.142 2.736-4.524.062-8.947-4.028-8.736-8.638-.197-5.438 1.891-11.2 6.626-14.237m-30.547 8.366c2.46-3.688 6.066-7.444 10.791-7.618 4.196.409 8.866 2.922 9.908 7.315 2.189 8.385-.548 17.092-4.28 24.616-4.993 10.152-11.294 19.802-19.515 27.646-5.867 5.909-14.072 9.012-22.139 10.391-18.153 1.43-36.349 3.063-54.572 2.693 17.462-6.693 35.657-11.788 52.074-20.931 3.785-1.979 7.752-4.104 10.205-7.735 7.444-11.317 10.573-24.803 17.528-36.377m171.587 19.646a7.564 7.564 0 1 1-.001 15.125 7.564 7.564 0 0 1 .001-15.125m0 6c-.86 0-1.563.701-1.563 1.563s.701 1.563 1.563 1.563 1.563-.701 1.563-1.563-.702-1.563-1.563-1.563"/><circle cx="150.464" cy="86.344" r="21.683"/></svg>