<svg xmlns="http://www.w3.org/2000/svg" viewBox="0 0 300 300"><path d="M97.59 25.416c-27.134.286-54.12 6.744-78.274 18.772C8.084 49.455 1.028 53.022 1.056 55.97c.058 5.944 3.288 3.86 10.8-.164 20.786-12.46 49.41-21.453 73.82-23.19l6.025-.428-3.172 2.72C70.262 50.57 56.276 68.318 46.346 88.431c-7.456 15.1-11.835 28.912-14.373 45.347-1.503 9.729-1.49 29.383.021 38.373 6.4 38.06 26.951 68.019 56.666 84.705 11.956 6.02 26.812 9.462 36.606 8.41 9.54-1.012 17.262-7.27 26.232-10.048 7.652-2.263 15.957-.54 23.047 2.76 8.718 3.399 16.724 8.785 26.04 10.51 10.759 2.328 21.501-1.665 30.954-6.509 9.007-3.926 18.105-10.305 28.428-8.404 13.173 1.785 22.142 13.48 35.033 16.045 2.614.99 5.583-1.792 4.262-4.416-1.32-1.949-3.958-1.663-5.924-2.496-8.666-3.088-15.453-9.848-24.125-12.94-8.654-3.655-18.854-3.584-27.332.551-11.626 4.2-22.046 12.769-34.906 12.692-14.973-.768-26.696-11.87-41.217-14.362-5.076-.689-10.346-.868-15.338.438-9.497 2.759-17.654 9.418-27.723 10.314-9.104.401-17.806-1.976-27.292-6.192-9.485-4.217-17.307-10.938-25.585-19.226-15.493-15.51-25.25-34.079-30.271-57.615-1.588-7.442-1.714-9.124-1.719-23.244-.005-13.046.194-16.264 1.387-22.516 2.862-15.003 6.793-26.557 13.812-40.591C64.807 66.47 83.04 46.044 106.531 30.08l6.533-4.44-10.046-.199q-2.716-.054-5.428-.025" style="fill:#000;stroke-width:4.43975;stroke-linejoin:bevel;stroke-miterlimit:4;stroke-dasharray:none;paint-order:fill markers stroke"/><path d="M35.412 85.066c14.017-10.086 12.186-10.491 104.127 68.131 52.702 45.068 69.07 71.635 76.916 93.98-27.817-9.127-61.156-24.307-110.23-72.822-84.557-83.596-84.473-79.46-70.813-89.289Z" style="fill:#fff;fill-opacity:1;fill-rule:nonzero;stroke:#000;stroke-width:6.16366;stroke-linecap:square;stroke-linejoin:bevel;stroke-miterlimit:4;stroke-dasharray:none;stroke-dashoffset:0;stroke-opacity:1"/><path d="M201.854 20.109c10.306-1.429 20.779 5.715 23.398 15.75 2.657 8.732-1.39 18.617-8.835 23.647-5.605 3.597-12.876 4.701-19.155 2.274-6.892-2.288-12.168-8.365-13.737-15.422-1.735-5.236-.133-10.889 2.342-15.604 3.168-5.918 9.472-9.627 15.987-10.645m76.99 45.548c4.313-10.387 9.244-20.54 12.246-31.412 1.371 8.266.232 16.637.406 24.954.171 10.066 1.367 21.114-4.111 30.117-1.883 3.512-5.629 5.623-9.479 6.229-9.98 1.059-20.041-.609-29.609-3.439-6.287-1.846-12.707-4.104-17.768-8.41-3.357-2.739-5.105-7.604-3.336-11.727 1.396-3.98 5.922-5.845 9.889-5.636 7.599-.459 14.634 2.716 21.625 5.191 4.52 1.78 8.727 4.246 13.133 6.279 2.33-4.049 5.162-7.829 7.004-12.146m-194.7-6.653c18.66.774 37.366 2.854 56.032 1.043 11.381-.479 22.851-2.718 34.201-.706 5.798 1.542 8.744 9.961 4.422 14.415-2.042 2.517-5.183 4.01-8.389 4.27-8.281 1.2-16.504-.884-24.722-1.637-12.179-2.114-24.102-5.458-36.066-8.526-8.924-1.554-17.091-5.629-25.478-8.859m50.205 34.421c9.127-6.066 18.587-12.888 29.872-13.787 5.714-.673 11.05 2.667 14.38 7.083 6.079 8.943 10.518 18.924 13.583 29.278 4.677-4.61 9.81-10.232 16.915-10.206 3.869.413 8.172 1.911 10.105 5.571 2.084 3.36 1.537 7.482 1.002 11.192-1.443 7.044-5.213 13.414-10.008 18.698-9.137 10.065-20.246 18.048-31.493 25.571-8.929 6.139-18.553 11.172-28.229 16.01 5.995-11.563 13.95-22.073 19.648-33.797-.933-4.036-3.648-7.492-4.519-11.598-3.252-10.151-4.748-20.715-6.448-31.205-17.621 4.538-34.6 11.28-52.236 15.779-4.711 1.213-9.361 2.675-14.132 3.646 4.69-4.577 9.306-9.259 14.312-13.494 9.031-6.32 18.239-12.388 27.248-18.741"/></svg>