<svg xmlns="http://www.w3.org/2000/svg" viewBox="0 0 300 300"><path d="M0 210h85.71v37.79c21.43 0 21.43-12.86 42.86-12.86s21.43 12.86 42.86 12.86 21.43-12.86 42.85-12.86 21.43 12.86 42.86 12.86 21.43-12.86 42.85-12.86" style="fill:none;stroke:#000;stroke-width:6;stroke-miterlimit:10"/><path d="M62.1 198.95c4.14-4.65 43.23-54.5 48.82-57.19.66-.32-37.19-23.26-41.2-40.48-1.23-5.28 1.54-8.64 7.92-13.41 5.98-4.48 8.5-1.22 22.16 9.28 6.01 4.62 11.17 9.77 16.55 15.58 10.6 10.93 23.83 26.85 13.18 40.48-14.86 15.76-45.14 37.02-66.68 46.73-.58.3-1.22-.49-.75-.99M79.6 24.49c7.47 6.59 24.15 21.35 31.49 27.55 10.22 8.76 21.71 18.4 31.45 27.59 6.8 6.28 13.47 12.7 19.81 19.43 9.53 10.96-5.48 25.27-15.98 15.19-6.54-6.79-12.71-13.91-18.74-21.16-11.91-14.2-23.51-28.61-34.09-43.87-5.32-7.68-10.41-15.55-14.9-23.98-.16-.3-.05-.67.25-.83.23-.12.51-.08.7.08z" style="fill:#010101"/><circle cx="192.97" cy="110.39" r="21.5"/></svg>