<svg xmlns="http://www.w3.org/2000/svg" xml:space="preserve" id="bd7f34a5-2bde-4ac3-958a-4017b9168e51" x="0" y="0" viewBox="0 0 300 300"><style>.st0{fill:none;stroke:#000;stroke-width:7;stroke-miterlimit:10}</style><path d="M218.213 74.072c48.458-.966 77.863 41.114 33.955 74.953-1.221 1.033-3.1-.444-2.355-1.875 5.727-12.115 15.203-29.417 3.533-40.748-10.326-8.39-24.026-9.779-36.734-12.388-11.576-2.325-10.216-19.483 1.601-19.942M68.306 258.144c17.454-27.154 38.67-51.962 62.238-73.995 14.553-13.693 30.72-25.993 49.068-34.071 13.651-5.727 24.584 12.119 13.212 21.668-19.645 15.974-40.92 28.711-61.262 43.536-15.372 10.95-30.311 22.489-45.216 34.112-5.051 3.844-9.953 7.864-15.061 11.691-1.833 1.451-4.449-1.059-2.979-2.941m219.756-14.757c-20.494-1.507-42.014-4.955-59.373-16.666-17.143-11.526-23.391-32.905-24.844-52.559-.504-6.425-.188-13.047 1.415-19.304 1.456-6.97 8.287-11.439 15.256-9.983a12.89 12.89 0 0 1 9.878 9.523c2.709 10.955 2.772 22.085 3.1 31.465-.084 10.292 2.882 20.791 10.904 27.704 6.06 5.752 13.387 10.237 20.717 14.172 7.669 4.117 16.123 7.974 24.139 11.469 2.273.937 1.263 4.578-1.192 4.179M160.6 111.549c-21.245 20.303-54.58 25.05-81.819 15.406a98 98 0 0 1-10.93-4.455c-.729-.326-1.055-1.18-.729-1.909.256-.571.85-.913 1.472-.847 1.911.205 3.811.361 5.682.598 17.818 1.92 36.413-.716 52.26-9.352 7.736-4.146 14.639-9.189 22.077-14.173 9.601-6.197 20.024 6.564 11.987 14.732"/><ellipse cx="34.416" cy="75.653" class="st0" rx="20.434" ry="24.526" transform="rotate(-38.512 34.416 75.652)"/><path d="m49.687 94.844 29.462 37.023" style="fill:none;stroke:#000;stroke-width:7;stroke-linecap:round;stroke-miterlimit:10"/><path d="M59.382 107.027c-5.548-6.972-17.872-8.07-22.527-8.4" class="st0"/><path d="M59.382 107.027c-5.548-6.972-3.851-19.228-3.125-23.837" class="st0"/><circle cx="69.798" cy="49.735" r="9.351"/><circle cx="165.53" cy="62.384" r="22"/></svg>