<svg xmlns="http://www.w3.org/2000/svg" xml:space="preserve" viewBox="0 0 300 300"><path d="M112.622 125.48a17.05 17.05 0 0 0-17.052 17.05 17.05 17.05 0 0 0 17.052 17.052 17.05 17.05 0 0 0 17.052-17.052 17.05 17.05 0 0 0-17.052-17.052m-30.199 21.527c-4.203.05-8.759 3.074-8.024 7.716 1.497 8.226 6.955 15.084 12.39 21.175 7.379 8.792 18.43 13.462 29.336 16.127 9.559 2.804 19.655 3.381 29.553 2.913-5.075-2.284-11.031-1.551-16.008-4.182-11.153-5.199-22.721-11.133-30.1-21.35-4.036-5.262-5.631-11.85-9.102-17.437-1.468-2.254-3.641-4.108-6.28-4.797a8.2 8.2 0 0 0-1.765-.165m-54.049 19.864c-3.58 1.44-6.715 4.19-7.636 8.067-1.996 8.187 1.257 16.329 2.74 24.314 3.248 16.7 8.62 32.878 12.166 49.51 2.405 8.218 4.91 16.415 7.353 24.625.874 2.555 1.48 5.3 3.176 7.473.512-6.152-.069-12.318-.339-18.465-1.001-21.492-2.264-42.971-4.279-64.392-.952-7.884-.752-16.128-4.064-23.517-1.597-3.847-4.977-6.85-9.117-7.615m21.746 1.557a29 29 0 0 0-4.413.252c-2.716 2.28-4.712 5.863-4.123 9.492.868 3.444 3.995 5.532 6.778 7.38 6.337 3.777 13.467 5.87 20.324 8.468-5.87 12.105-11.712 24.229-17.854 36.201-.881 1.66-1.267 3.516-1.544 5.36 1.28-.51 2.496-1.16 3.434-2.193 5.903-5.752 11.31-11.994 17.23-17.728 4.27-4.598 9.013-9.01 11.724-14.772 1.806-4.128 3.325-8.995 1.253-13.321-2.892-6.274-9.21-9.777-14.783-13.337-5.317-3.513-11.647-5.68-18.026-5.802m71.833 30.893c-2.187 0-4.372.21-6.512.641-6.047 1.44-11.91 3.857-16.924 7.574-7.93 5.38-13.525 13.465-17.773 21.92-4.16 9.67-5.676 20.474-3.88 30.88 1.917 8.556 5.843 17.038 12.906 22.537 5.753 4.961 13.23 7.256 20.738 7.256 4.457 0 8.925-.809 13.053-2.349 24.016-9.283 38.33-38.195 30.948-62.894-1.803-6.802-5.783-12.897-10.944-17.63-5.904-5.211-13.766-7.935-21.612-7.935m-119.453.3v4.835c.168.06.331.079.5.14 8.376 3.637 14.95 11.772 17.17 21.26l.024.104.028.104c3.265 11.556.283 22.979-2.822 30.568-2.849 5.888-7.727 13.356-14.9 18.875v5.759c8.47-5.451 14.842-13.727 19.173-22.728 4.35-10.571 6.201-22.59 3.05-33.747-2.486-10.625-9.872-20.2-19.986-24.537-.726-.27-1.496-.402-2.237-.633m119.456 4.379c6.879 0 13.613 2.455 18.48 6.737 4.743 4.359 8.045 9.665 9.552 15.35l.018.07.02.071c3.18 10.642 1.936 22.97-3.414 33.82-5.34 10.834-14.346 19.347-24.713 23.361a33 33 0 0 1-11.393 2.045c-6.824 0-13.105-2.174-17.683-6.121l-.09-.08-.09-.07c-6.73-5.24-9.799-13.611-11.19-19.756-1.57-9.234-.348-18.91 3.534-27.998 4.676-9.272 9.96-15.82 16.155-20.024l.081-.055.08-.057c4.143-3.07 9.238-5.344 15.14-6.76a28.5 28.5 0 0 1 5.513-.533" style="stroke-width:.77952"/><path d="M154.126 81.851c-2.35-.631-9.015-3.39-14.811-6.132-18.97-8.97-20.815-8.955-37.828.331-7.427 4.054-8.103 4.266-14.527 4.574-7.726.37-12.047-.807-23.274-6.34-5.018-2.472-6.626-3.643-6.626-4.824 0-2.323 2.78-2.344 7.295-.056 9.099 4.611 15.586 6.682 20.983 6.698 4.971.015 5.811-.273 16.278-5.582 16.55-8.393 20.516-8.293 40.216 1.01 18.68 8.823 22.127 8.84 39.661.19 5.6-2.761 12.256-5.72 14.792-6.574 9.236-3.111 16.998-1.934 27.593 4.185 8.657 5 13.758 7.535 15.161 7.535 2.212 0 4.08 1.84 3.472 3.421-.453 1.18-1.177 1.37-4.134 1.079-2.604-.257-6.254-1.873-13.33-5.904-11.576-6.595-17.014-8.279-22.874-7.082-2.21.452-9.807 3.595-16.882 6.986-16.346 7.833-21.871 8.983-31.165 6.485m5.352-9.958c-4.608-1.647-7.45-4.149-9.588-8.437-5.778-11.595 2.324-24.007 15.67-24.007 4.875 0 11.113 3.589 13.75 7.911 4.18 6.852 3.499 13.908-1.91 19.775-4.795 5.203-11.612 7.013-17.922 4.758M131.29 61.707c-4.955-4.037-12.872-13.104-15.792-18.087-2.847-4.856-4.416-11.623-3.486-15.027.936-3.425 3.47-5.224 13.293-9.442 12.09-5.19 32.488-10.579 34.067-9 .771.772-3.406 4.097-11.473 9.132-15.147 9.452-21.851 13.947-21.851 14.647 0 .408 3.839 4.548 8.53 9.2 8.874 8.8 10.178 10.816 10.178 15.737 0 3.625-1.864 5.507-6.006 6.062-2.697.362-3.47.028-7.46-3.222" style="fill:#000;stroke-width:.77952"/><path d="M239.614 107.983a16.84 16.84 0 0 0-16.836 16.836 16.84 16.84 0 0 0 16.836 16.84 16.84 16.84 0 0 0 16.84-16.84 16.84 16.84 0 0 0-16.84-16.836m-36.073 29.15c-5.14-.106-10.365 1.466-15.044 3.44-4.111 1.842-8.218 4.329-11.149 7.784-1.332 1.571-2.423 3.343-3.158 5.343-2.259 6.466-.582 13.565 2.12 19.616 3.222 4.87 7.096 9.353 11.596 13.09 3.453 2.939 7.578 4.918 11.163 7.677-3.83-3.053-5.505-7.806-8.19-11.75-2.782-4.852-5.194-10.039-6.077-15.606-.3-3.443.027-7.449 2.94-9.779 3.31-2.57 7.638-3.041 11.67-3.514 4.312-.851 9.158-.22 12.905-2.935 1.482-1.348 3.359-2.842 3.414-5.028-.292-3.107-2.294-5.991-5.294-7.034-2.24-.862-4.56-1.255-6.896-1.304m48.26 13.14c-1.706-.03-3.236 1.165-4.442 2.282-2.83 2.97-3.571 7.436-2.923 11.377.845 7.233 4.496 14.013 9.786 18.97 3.262 3.121 8.11 4.09 12.467 3.366 9.53-1.805 18.165-7.685 23.594-15.692 2.423-3.371 4.734-6.902 6.078-10.859.809-2.297.606-4.782 1.139-7.137-.272-.053-.54-.09-.81-.124-.31 1.172-.867 2.255-1.563 3.242-3.466 4.92-7.54 9.572-12.765 12.675-4.137 2.48-8.412 5-13.154 6.088-3.94.926-6.69-2.849-8.266-5.895-1.716-4.595-1.444-9.775-3.727-14.198-.974-1.858-2.62-3.442-4.676-4.003a3.5 3.5 0 0 0-.738-.091m-49.766 43.81c-3.703.567-7.566 2.588-8.916 6.295-2.185 5.44.3 11.624 4.556 15.304-7.435 10.609-14.89 21.207-22.324 31.817-9.22 13.588-17.924 27.512-26.742 41.363 18.585-16.092 37.037-32.338 55.174-48.93 4.137-4.255 8.148-8.631 12.095-13.064 4.912 3.166 10.335 5.431 15.282 8.534 1.969 1.175 2.348 3.688 2.245 5.787-.393 8.77-3.435 17.106-4.753 25.733-1.487 7.69-2.587 15.444-3.627 23.207 3.367-5.725 7.52-10.982 10.43-16.971 4.075-9.161 8.27-18.268 12.308-27.444 2.482-6.772 4.696-15.158.057-21.53-5.328-6.51-12.686-10.88-18.883-16.47-.185-1.441.017-2.93-.362-4.342-.845-2.461-3.149-3.924-5.302-5.13-2.647-1.05-5.431-.209-8.108.129-4.216-1.862-8.509-3.716-13.13-4.288" style="fill:#000;stroke-width:.626176"/></svg>