<svg xmlns="http://www.w3.org/2000/svg" viewBox="0 0 300 300"><circle cx="137" cy="129" r="21.5"/><path d="M300 191c-30 0-30 18-60 18s-30-18-60-18-30 18-60 18-30-18-60-18-30 18-60 18" style="fill:none;stroke:#010101;stroke-width:6;stroke-miterlimit:10"/><path d="M275.32 170.44c-15.61.8-37.25 1.9-52.6 3.28-17.42 1.27-34.99 1.72-52.34-.49-11.81-1.98-10.62-18.82 1.3-19.18 10.94-.39 21.79.38 32.63 1.47 15.22 1.49 30.36 3.85 45.36 6.93 8.61 1.78 17.2 3.86 25.73 6.75.35.08.6.45.47.81-.08.25-.31.4-.55.42zm-178.18-6.43c-20.85.02-46.9-8.88-55.09-30.46-7.21-19.9.24-41.03 8.2-59.12.31-.62 1.29-.37 1.17.38-1.08 19.49-5.82 46.44 11.94 59.18 10.05 6.85 23.06 8.15 35.1 9.31 5.71.56 9.88 5.64 9.32 11.35-.53 5.47-5.24 9.53-10.64 9.36" style="fill:#010101"/><circle cx="67" cy="81" r="15" style="fill:none;stroke:#000;stroke-width:6;stroke-miterlimit:10"/></svg>