<svg xmlns="http://www.w3.org/2000/svg" data-name="Ebene 1" viewBox="0 0 300 300"><rect width="22" height="84" x="22" y="153.749" rx="4"/><rect width="22" height="84" x="256" y="153.749" rx="4"/><path d="M33 195.749h234" style="stroke:#000;stroke-miterlimit:10;stroke-width:6px"/><circle cx="150" cy="83.751" r="21.5"/><path d="M182.715 104.641c14.367 12.514 24.482 28.265 35.3 43.649 10.227 15.028 20.634 30.978 29.984 46.555a1.481 1.481 0 0 1-2.249 1.85c-3.495-3.114-6.851-6.339-10.241-9.534-13.189-12.445-26.488-26.066-39.184-39.017-7.627-7.639-15.724-16.234-22.917-24.6A18.02 18.02 0 0 1 169 110.062c.378-3.712 1.945-7.041 6.772-7.716a9.4 9.4 0 0 1 6.943 2.295m-65.789 0c-14.367 12.514-24.482 28.265-35.3 43.649-10.226 15.028-20.637 30.978-29.987 46.555a1.48 1.48 0 0 0 2.248 1.85c3.5-3.114 6.852-6.339 10.242-9.534 13.189-12.445 26.488-26.066 39.184-39.017 7.627-7.639 15.724-16.234 22.917-24.6a18.02 18.02 0 0 0 4.406-13.479c-.377-3.712-1.945-7.041-6.771-7.716a9.4 9.4 0 0 0-6.939 2.292m13.948 129.076c-3.757-10.3-5.86-21.116-7.846-31.835-2.493-17.316-6.425-35.132-2.75-52.58l.67-3.024c3.114-13.1 21.9-11.737 23.225 1.514 1.577 17.621.032 35.714-.79 53.341-.65 10.119-1.405 21.55-1.879 31.525-.31 6.176-9.085 6.975-10.63 1.059m23.492-7.093-.023-53.056c.785-18.835 28.239-17.274 26.862 1.547l-6.115 52.7a10.4 10.4 0 0 1-20.724-1.194Z"/></svg>