<svg xmlns="http://www.w3.org/2000/svg" xml:space="preserve" viewBox="0 0 300 300"><path d="M186.656 113.442c-2.599-4.81-9.816-6.478-14.129-3.049-2.26 2.441-3.353 5.699-4.346 8.81-2.253 8.23-3.348 15.964-6.681 24.297l-1.811-.216c-5.52-.72-11.082-.967-16.641-1.054-9.888-1.082-20.063-3.998-27.792-10.507-8.384-8.569-8.574-21.427-8.922-32.663-.351-5.878.133-12.279-3.005-17.528-4.125-4.503-12.228-3.91-16.292.438-4.967 4.945-5.627 12.43-5.906 19.062.135 13.432 5.563 27.056 15.513 36.219 8.136 7.588 19.432 10.801 30.365 10.936 7.316.019 14.712 1.2 21.962-.246 2.915-.832 5.838-1.627 8.801-2.285 1.394-.323 3.435-.823 3.435-.823-2.676 3.159-6.595 8.807-10.327 10.836-6.896 3.92-15.117 4.634-22.9 4.603-5.797-.774-11.612-2.256-17.503-1.437 2.204 2.621 5.468 3.728 8.442 5.211 5.541 2.853 11.914 2.961 17.914 4.142 10.938 1.588 22.991.852 32.124-6.04 5.762-3.953 9.832-9.764 13.451-15.626 3.736-6.185 5.836-13.274 6.453-20.452.233-4.286.305-8.924-2.205-12.628m-136.09 20.697c-5.344.898-9.063 5.546-11.064 10.278-3.844 9.398-3.99 19.708-5.601 29.608-.969 9.362-5.507 17.759-8.561 26.528-4.544 12.722-15.863 20.892-25.341 29.78v8.656c6.276-4.06 13.086-7.303 18.922-12.029 19.831-14.612 35.745-35.407 41.687-59.568 1.949-8.439 3.472-17.512.741-25.958-1.377-4.509-6.03-7.885-10.783-7.295m32.248 4.844c-5.108-3.734-13.542-2.87-17.171 2.518-2.68 5.527.001 11.79 3.176 16.492 8.028 11.097 19.44 19.168 31.04 26.141 3.277 2.169 5.753 5.822 4.982 9.918-1.156 11.56-5.383 22.548-9.767 33.224-2.967 7.276-7.299 13.922-10.292 21.173 1.392-.792 2.79-1.601 3.852-2.825 7.623-8.072 15.126-16.332 21.288-25.6 5.773-8.496 11.313-17.746 12.601-28.122 1.026-6.527-2.296-12.604-5.345-18.11-8.79-13.88-20.687-25.741-34.364-34.809m122.152 65.288c-1.489-3.534-3.796-7.661-1.94-11.479 1.734-4.514 5.942-7.285 8.73-11.072 5.702-7.417 11.614-14.937 14.848-23.825 2.274-5.454 3.97-11.946.965-17.477-3.624-6.501-13.837-5.174-17.972.107-10.767 12.684-18.934 27.648-23.593 43.629-2.094 7.287-2.689 15.523 1.256 22.318 7.706 13.001 20.199 22.068 32.109 30.93 5.639 3.323 10.846 7.772 17.184 9.655-2.019-3.06-4.86-5.437-7.19-8.241-9.633-10.333-18.063-21.899-24.397-34.545m73.142 4.645c-3.856-4.522-5.993-10.137-8.723-15.339-2.236-4.702-5.045-9.189-6.436-14.245-3.021-11.303-4.16-23.328-9.716-33.796-2.432-4.754-7.104-7.731-12.174-9.006-2.607 1.387-5.723 2.496-7.258 5.204-2.65 4.438-2.361 9.866-1.723 14.803 2.66 18.67 12.115 35.854 24.764 49.636 11.997 12.952 27.139 22.575 43.158 29.78v-8.178c-7.362-6.199-15.896-11.179-21.892-18.859"/><circle cx="134.381" cy="72.342" r="21.6"/><circle cx="141.388" cy="117.344" r="21.599"/></svg>